<svg width="60" height="60" viewBox="0 0 60 60" fill="none" xmlns="http://www.w3.org/2000/svg">
<path d="M56.3422 3.10651H45.0359C44.5505 3.10651 44.157 3.50002 44.157 3.98541C44.157 4.4708 44.5505 4.86432 45.0359 4.86432H56.3422C57.3899 4.86432 58.2422 5.71662 58.2422 6.76428V40.1597H1.75781V6.76428C1.75781 5.71662 2.61012 4.86432 3.65777 4.86432H40.9342C41.4196 4.86432 41.8131 4.4708 41.8131 3.98541C41.8131 3.50002 41.4196 3.10651 40.9342 3.10651H3.65777C1.64086 3.10651 0 4.74737 0 6.76428V42.9472C0 44.9641 1.64086 46.605 3.65777 46.605H12.072C12.5573 46.605 12.9509 46.2115 12.9509 45.7261C12.9509 45.2407 12.5573 44.8472 12.072 44.8472H3.65777C2.61012 44.8472 1.75781 43.9949 1.75781 42.9472V41.9175H58.2422V42.9472C58.2422 43.9949 57.3899 44.8472 56.3422 44.8472H16.1348C15.6495 44.8472 15.2559 45.2407 15.2559 45.7261C15.2559 46.2115 15.6495 46.605 16.1348 46.605H21.6666L20.7988 51.62H19.195C17.741 51.62 16.5582 52.8028 16.5582 54.2567C16.5582 55.7107 17.741 56.8935 19.195 56.8935H40.805C42.259 56.8935 43.4418 55.7107 43.4418 54.2567C43.4418 52.8028 42.259 51.62 40.805 51.62H39.2012L38.3334 46.605H56.3421C58.359 46.605 59.9999 44.9641 59.9999 42.9472V6.76428C60 4.74737 58.3591 3.10651 56.3422 3.10651ZM37.4173 51.62H35.0245C34.5391 51.62 34.1456 52.0135 34.1456 52.4989C34.1456 52.9843 34.5391 53.3778 35.0245 53.3778H40.805C41.2897 53.3778 41.6839 53.772 41.6839 54.2567C41.6839 54.7414 41.2897 55.1356 40.805 55.1356H19.195C18.7103 55.1356 18.3161 54.7414 18.3161 54.2567C18.3161 53.772 18.7103 53.3778 19.195 53.3778H30.9216C31.407 53.3778 31.8005 52.9843 31.8005 52.4989C31.8005 52.0135 31.407 51.62 30.9216 51.62H22.5827L23.4505 46.605H36.5496L37.4173 51.62Z" fill="#ffb515"/>
<path d="M47.5452 25.345C47.2145 25.345 46.9118 25.5306 46.7618 25.8253L42.6141 33.9775L39.1139 27.098C38.9639 26.8033 38.6612 26.6176 38.3305 26.6176C37.9998 26.6176 37.6971 26.8033 37.5471 27.098L35.6497 30.8272H32.6203C32.1349 30.8272 31.7414 31.2208 31.7414 31.7061C31.7414 32.1915 32.1349 32.5851 32.6203 32.5851H36.1887C36.5194 32.5851 36.8221 32.3994 36.9721 32.1047L38.3305 29.4348L41.8307 36.3143C41.9807 36.609 42.2834 36.7947 42.6141 36.7947C42.9448 36.7947 43.2475 36.609 43.3975 36.3143L47.5452 28.1622L49.5511 32.1048C49.7011 32.3995 50.0038 32.5852 50.3345 32.5852H53.9029C54.3882 32.5852 54.7818 32.1917 54.7818 31.7063C54.7818 31.2209 54.3882 30.8274 53.9029 30.8274H50.8734L48.3286 25.8254C48.1786 25.5306 47.8759 25.345 47.5452 25.345Z" fill="#ffb515"/>
<path d="M32.6206 22.7413H37.1815C37.6668 22.7413 38.0604 22.3477 38.0604 21.8623V12.6099C38.0604 12.1245 37.6668 11.731 37.1815 11.731H32.6206C32.1352 11.731 31.7417 12.1245 31.7417 12.6099V21.8623C31.7417 22.3477 32.1352 22.7413 32.6206 22.7413ZM33.4995 13.4888H36.3025V20.9834H33.4995V13.4888Z" fill="#ffb515"/>
<path d="M45.5732 14.2453H41.0123C40.527 14.2453 40.1334 14.6388 40.1334 15.1242V21.8624C40.1334 22.3478 40.527 22.7413 41.0123 22.7413H45.5732C46.0586 22.7413 46.4521 22.3478 46.4521 21.8624V15.1242C46.4521 14.6388 46.0586 14.2453 45.5732 14.2453ZM44.6943 20.9835H41.8913V16.0031H44.6943V20.9835Z" fill="#ffb515"/>
<path d="M53.9029 22.7413C54.3882 22.7413 54.7818 22.3478 54.7818 21.8624V10.2902C54.7818 9.80483 54.3882 9.41132 53.9029 9.41132H49.342C48.8567 9.41132 48.4631 9.80483 48.4631 10.2902V21.8624C48.4631 22.3478 48.8567 22.7413 49.342 22.7413H53.9029ZM50.2209 11.1691H53.024V20.9835H50.2209V11.1691Z" fill="#ffb515"/>
<path d="M26.0037 19.3538H6.08179C5.5964 19.3538 5.20288 19.7473 5.20288 20.2327C5.20288 20.7181 5.5964 21.1116 6.08179 21.1116H26.0037C26.4891 21.1116 26.8826 20.7181 26.8826 20.2327C26.8826 19.7473 26.4891 19.3538 26.0037 19.3538Z" fill="#ffb515"/>
<path d="M6.08179 25.7804H9.64687C10.1323 25.7804 10.5258 25.3869 10.5258 24.9015C10.5258 24.4161 10.1323 24.0226 9.64687 24.0226H6.08179C5.5964 24.0226 5.20288 24.4161 5.20288 24.9015C5.20288 25.3869 5.5964 25.7804 6.08179 25.7804Z" fill="#ffb515"/>
<path d="M26.0037 24.0226H13.674C13.1886 24.0226 12.7951 24.4161 12.7951 24.9015C12.7951 25.3869 13.1886 25.7804 13.674 25.7804H26.0037C26.4891 25.7804 26.8826 25.3869 26.8826 24.9015C26.8826 24.4161 26.4891 24.0226 26.0037 24.0226Z" fill="#ffb515"/>
<path d="M26.0037 9.41132H6.08179C5.5964 9.41132 5.20288 9.80483 5.20288 10.2902C5.20288 10.7756 5.5964 11.1691 6.08179 11.1691H26.0037C26.4891 11.1691 26.8826 10.7756 26.8826 10.2902C26.8826 9.80483 26.4891 9.41132 26.0037 9.41132Z" fill="#ffb515"/>
<path d="M6.08179 15.8381H18.4359C18.9213 15.8381 19.3148 15.4446 19.3148 14.9592C19.3148 14.4738 18.9213 14.0803 18.4359 14.0803H6.08179C5.5964 14.0803 5.20288 14.4738 5.20288 14.9592C5.20288 15.4446 5.5964 15.8381 6.08179 15.8381Z" fill="#ffb515"/>
<path d="M26.0037 14.0803H22.4631C21.9777 14.0803 21.5842 14.4738 21.5842 14.9592C21.5842 15.4446 21.9777 15.8381 22.4631 15.8381H26.0037C26.4891 15.8381 26.8826 15.4446 26.8826 14.9592C26.8826 14.4738 26.4891 14.0803 26.0037 14.0803Z" fill="#ffb515"/>
<path d="M26.8826 29.5138C26.8826 29.0284 26.4891 28.6349 26.0037 28.6349H6.08179C5.5964 28.6349 5.20288 29.0284 5.20288 29.5138C5.20288 29.9992 5.5964 30.3927 6.08179 30.3927H26.0037C26.4891 30.3927 26.8826 29.9992 26.8826 29.5138Z" fill="#ffb515"/>
<path d="M6.08179 33.279C5.5964 33.279 5.20288 33.6725 5.20288 34.1579C5.20288 34.6433 5.5964 35.0368 6.08179 35.0368H15.4568C15.9422 35.0368 16.3357 34.6433 16.3357 34.1579C16.3357 33.6725 15.9422 33.279 15.4568 33.279H6.08179Z" fill="#ffb515"/>
</svg>
