<svg width="60" height="60" viewBox="0 0 60 60" fill="none" xmlns="http://www.w3.org/2000/svg">
<g clip-path="url(#clip0_1366:74)">
<path d="M44.651 26.7231C44.2032 26.5351 43.6883 26.746 43.5004 27.1934L37.6142 41.2191C37.4264 41.6666 37.637 42.1818 38.0845 42.3696C38.1956 42.4163 38.3109 42.4383 38.4242 42.4383C38.7677 42.4383 39.0938 42.2357 39.2351 41.8992L45.1213 27.8735C45.3092 27.4261 45.0986 26.911 44.651 26.7231Z" fill="#ffb515"/>
<path d="M37.2979 26.001C35.3791 26.001 33.8181 27.7511 33.8181 29.9023C33.8181 32.0535 35.3792 33.8036 37.2979 33.8036C39.2166 33.8036 40.7776 32.0535 40.7776 29.9023C40.7776 27.7511 39.2166 26.001 37.2979 26.001ZM37.2979 32.0456C36.3483 32.0456 35.5759 31.0841 35.5759 29.9021C35.5759 28.7202 36.3484 27.7587 37.2979 27.7587C38.2473 27.7587 39.0198 28.7202 39.0198 29.9021C39.0198 31.0841 38.2473 32.0456 37.2979 32.0456Z" fill="#ffb515"/>
<path d="M41.7678 39.4918C41.7678 41.6429 43.3288 43.3931 45.2475 43.3931C47.1662 43.3931 48.7273 41.643 48.7273 39.4918C48.7273 37.3406 47.1662 35.5905 45.2475 35.5905C43.3288 35.5905 41.7678 37.3406 41.7678 39.4918ZM45.2475 37.3483C46.1971 37.3483 46.9695 38.31 46.9695 39.4918C46.9695 40.6736 46.197 41.6353 45.2475 41.6353C44.2981 41.6353 43.5256 40.6738 43.5256 39.4918C43.5256 38.3099 44.2981 37.3483 45.2475 37.3483Z" fill="#ffb515"/>
<path d="M41.2726 15.9696C30.9464 15.9696 22.5453 24.3707 22.5453 34.6969C22.5453 45.0232 30.9464 53.4243 41.2726 53.4243C51.5989 53.4243 60 45.0232 60 34.6969C60 24.3707 51.5989 15.9696 41.2726 15.9696ZM41.2726 51.6665C31.9157 51.6665 24.3032 44.054 24.3032 34.6969C24.3032 25.3399 31.9157 17.7274 41.2726 17.7274C50.6297 17.7274 58.2422 25.3399 58.2422 34.6969C58.2422 44.054 50.6297 51.6665 41.2726 51.6665Z" fill="#ffb515"/>
<path d="M29.0606 51.6664H4.63641C4.60301 51.6664 4.57594 51.6394 4.57594 51.606V47.8485C4.57594 47.8151 4.60301 47.788 4.63641 47.788H23.4243C23.9096 47.788 24.3032 47.3945 24.3032 46.9091C24.3032 46.4237 23.9096 46.0302 23.4243 46.0302H1.81828C1.78488 46.0302 1.75781 46.0031 1.75781 45.9697V42.2121C1.75781 42.1787 1.78488 42.1516 1.81828 42.1516H20.6061C21.0915 42.1516 21.485 41.7581 21.485 41.2727C21.485 40.7873 21.0915 40.3938 20.6061 40.3938H4.63641C4.60301 40.3938 4.57594 40.3668 4.57594 40.3334V36.5759C4.57594 36.5425 4.60301 36.5154 4.63641 36.5154H19.6666C20.152 36.5154 20.5455 36.1219 20.5455 35.6365C20.5455 35.1511 20.152 34.7576 19.6666 34.7576H1.81828C1.78488 34.7576 1.75781 34.7305 1.75781 34.6971V30.9396C1.75781 30.9062 1.78488 30.8791 1.81828 30.8791H20.058C20.5434 30.8791 20.937 30.4856 20.937 30.0002C20.937 29.5148 20.5434 29.1213 20.058 29.1213H4.63641C4.60301 29.1213 4.57594 29.0943 4.57594 29.0609V25.3034C4.57594 25.27 4.60301 25.2429 4.63641 25.2429H22.1325C22.6179 25.2429 23.0114 24.8494 23.0114 24.364C23.0114 23.8786 22.6179 23.4851 22.1325 23.4851H1.81828C1.78488 23.4851 1.75781 23.458 1.75781 23.4246V19.6671C1.75781 19.6337 1.78488 19.6066 1.81828 19.6066H26.3989C26.8843 19.6066 27.2779 19.2131 27.2779 18.7277C27.2779 18.2423 26.8843 17.8488 26.3989 17.8488H4.63641C4.60301 17.8488 4.57594 17.8218 4.57594 17.7884V14.0307C4.57594 13.9973 4.60301 13.9703 4.63641 13.9703H38.4545C38.9399 13.9703 39.3334 13.5768 39.3334 13.0914C39.3334 12.606 38.9399 12.2125 38.4545 12.2125H37.4547V8.39403C37.4547 7.39137 36.639 6.57574 35.6364 6.57574H1.81828C0.815625 6.57574 0 7.39137 0 8.39403V12.1515C0 13.1542 0.815625 13.9698 1.81828 13.9698H2.81813V17.8484H1.81828C0.815625 17.8485 0 18.6641 0 19.6668V23.4243C0 24.4269 0.815625 25.2425 1.81828 25.2425H2.81813V29.1211H1.81828C0.815625 29.1211 0 29.9367 0 30.9394V34.6969C0 35.6995 0.815625 36.5152 1.81828 36.5152H2.81813V40.3937H1.81828C0.815625 40.3937 0 41.2095 0 42.212V45.9696C0 46.9723 0.815625 47.7879 1.81828 47.7879H2.81813V51.606C2.81813 52.6086 3.63375 53.4243 4.63641 53.4243H29.0605C29.5459 53.4243 29.9394 53.0307 29.9394 52.5453C29.9394 52.06 29.546 51.6664 29.0606 51.6664ZM1.75781 12.1515V8.39403C1.75781 8.36063 1.78488 8.33356 1.81828 8.33356H35.6364C35.6698 8.33356 35.6968 8.36063 35.6968 8.39403V12.1515C35.6968 12.1849 35.6698 12.212 35.6364 12.212H1.81828C1.78488 12.212 1.75781 12.1849 1.75781 12.1515Z" fill="#ffb515"/>
<path d="M49.2755 45.1922C46.9078 47.0018 44.0856 47.891 41.2725 47.8908C37.8691 47.8905 34.4796 46.5885 31.9303 44.0392C27.2741 39.383 26.7785 31.9262 30.7774 26.6941C31.0721 26.3085 30.9984 25.7569 30.6129 25.4621C30.2272 25.1674 29.6757 25.241 29.3808 25.6268C27.1972 28.4837 26.117 32.0405 26.3392 35.642C26.5636 39.279 28.1078 42.7025 30.6873 45.2822C33.2668 47.8618 36.6904 49.4059 40.3275 49.6303C40.637 49.6494 40.9455 49.6589 41.254 49.6589C44.5346 49.6588 47.7314 48.5848 50.3428 46.5888C50.7285 46.294 50.8022 45.7424 50.5074 45.3568C50.2127 44.9709 49.661 44.8974 49.2755 45.1922Z" fill="#ffb515"/>
<path d="M56.2061 33.7519C55.9817 30.1149 54.4375 26.6913 51.858 24.1117C49.2784 21.5322 45.8548 19.988 42.2178 19.7636C38.6162 19.5413 35.0594 20.6215 32.2026 22.8052C31.8169 23.1 31.7432 23.6516 32.0379 24.0373C32.3328 24.4228 32.8844 24.4967 33.2699 24.2018C38.502 20.2029 45.9587 20.6985 50.6149 25.3547C55.2712 30.0109 55.7669 37.4678 51.7678 42.6999C51.4731 43.0855 51.5468 43.6371 51.9325 43.9318C52.0917 44.0536 52.2794 44.1126 52.4656 44.1126C52.7299 44.1126 52.9915 43.9936 53.1645 43.7673C55.3481 40.9103 56.4283 37.3534 56.2061 33.7519Z" fill="#ffb515"/>
</g>
<defs>
<clipPath id="clip0_1366:74">
<rect width="60" height="60" fill="white"/>
</clipPath>
</defs>
</svg>
