<svg width="151" viewBox="0 0 515 196" fill="none" xmlns="http://www.w3.org/2000/svg">
<path d="M0.702148 195V159.3H28.9521V195H21.4021V165.6H8.25215V195H0.702148Z" fill="black"></path>
<path d="M51.108 159.3C55.708 159.3 59.058 160.3 61.158 162.3C63.2913 164.267 64.358 166.983 64.358 170.45C64.358 172.517 63.9247 174.467 63.058 176.3C62.1913 178.1 60.7413 179.55 58.708 180.65C56.708 181.75 53.9747 182.3 50.508 182.3H47.258V195H39.708V159.3H51.108ZM50.708 165.5H47.258V176.1H49.758C51.8913 176.1 53.5747 175.683 54.808 174.85C56.0747 173.983 56.708 172.6 56.708 170.7C56.708 167.233 54.708 165.5 50.708 165.5Z" fill="black"></path>
<path d="M105.254 177.1C105.254 180.8 104.638 184.033 103.404 186.8C102.204 189.533 100.354 191.667 97.8545 193.2C95.3545 194.733 92.1545 195.5 88.2545 195.5C84.3878 195.5 81.1878 194.733 78.6545 193.2C76.1545 191.667 74.2878 189.517 73.0545 186.75C71.8545 183.983 71.2545 180.75 71.2545 177.05C71.2545 173.35 71.8545 170.133 73.0545 167.4C74.2878 164.667 76.1545 162.55 78.6545 161.05C81.1878 159.517 84.4045 158.75 88.3045 158.75C92.1712 158.75 95.3545 159.517 97.8545 161.05C100.354 162.55 102.204 164.683 103.404 167.45C104.638 170.183 105.254 173.4 105.254 177.1ZM79.2045 177.1C79.2045 180.833 79.9212 183.783 81.3545 185.95C82.7878 188.083 85.0878 189.15 88.2545 189.15C91.4878 189.15 93.8045 188.083 95.2045 185.95C96.6045 183.783 97.3045 180.833 97.3045 177.1C97.3045 173.333 96.6045 170.383 95.2045 168.25C93.8045 166.117 91.5045 165.05 88.3045 165.05C85.1045 165.05 82.7878 166.117 81.3545 168.25C79.9212 170.383 79.2045 173.333 79.2045 177.1Z" fill="black"></path>
<path d="M134.799 163.2C138.699 163.3 141.799 163.983 144.099 165.25C146.433 166.483 148.099 168.083 149.099 170.05C150.133 172.017 150.649 174.167 150.649 176.5C150.649 178 150.383 179.533 149.849 181.1C149.349 182.667 148.483 184.117 147.249 185.45C146.049 186.75 144.433 187.817 142.399 188.65C140.366 189.483 137.833 189.933 134.799 190V195.5H127.999V190C124.933 189.933 122.366 189.483 120.299 188.65C118.266 187.817 116.649 186.733 115.449 185.4C114.249 184.067 113.399 182.633 112.899 181.1C112.399 179.533 112.149 178 112.149 176.5C112.149 174.167 112.649 172.017 113.649 170.05C114.683 168.083 116.349 166.483 118.649 165.25C120.983 163.983 124.099 163.3 127.999 163.2V158.8H134.799V163.2ZM127.999 169.1C124.766 169.233 122.499 169.983 121.199 171.35C119.899 172.683 119.249 174.383 119.249 176.45C119.249 178.683 119.949 180.5 121.349 181.9C122.749 183.267 124.966 184.017 127.999 184.15V169.1ZM134.799 184.15C137.866 184.017 140.083 183.267 141.449 181.9C142.849 180.5 143.549 178.683 143.549 176.45C143.549 174.383 142.899 172.683 141.599 171.35C140.333 169.983 138.066 169.233 134.799 169.1V184.15Z" fill="black"></path>
<path d="M174.317 165.1C171.417 165.1 169.2 166.183 167.667 168.35C166.134 170.517 165.367 173.483 165.367 177.25C165.367 181.05 166.067 184 167.467 186.1C168.9 188.167 171.184 189.2 174.317 189.2C175.784 189.2 177.234 189.033 178.667 188.7C180.134 188.367 181.717 187.9 183.417 187.3V193.65C181.85 194.283 180.3 194.75 178.767 195.05C177.234 195.35 175.517 195.5 173.617 195.5C169.95 195.5 166.917 194.75 164.517 193.25C162.15 191.717 160.4 189.583 159.267 186.85C158.134 184.083 157.567 180.867 157.567 177.2C157.567 173.6 158.217 170.417 159.517 167.65C160.817 164.883 162.7 162.717 165.167 161.15C167.667 159.583 170.717 158.8 174.317 158.8C176.084 158.8 177.85 159.033 179.617 159.5C181.417 159.933 183.134 160.533 184.767 161.3L182.317 167.45C180.984 166.817 179.634 166.267 178.267 165.8C176.934 165.333 175.617 165.1 174.317 165.1Z" fill="black"></path>
<path d="M206.503 195H198.953V165.6H189.253V159.3H216.203V165.6H206.503V195Z" fill="black"></path>
<path d="M241.792 195L239.192 186.5H226.192L223.592 195H215.442L228.042 159.15H237.292L249.942 195H241.792ZM234.792 171.85C234.626 171.283 234.409 170.567 234.142 169.7C233.876 168.833 233.609 167.95 233.342 167.05C233.076 166.15 232.859 165.367 232.692 164.7C232.526 165.367 232.292 166.2 231.992 167.2C231.726 168.167 231.459 169.1 231.192 170C230.959 170.867 230.776 171.483 230.642 171.85L228.092 180.15H237.392L234.792 171.85Z" fill="black"></path>
<path d="M284.464 195H276.914V165.6H268.164C267.964 167.133 267.747 168.8 267.514 170.6C267.314 172.4 267.081 174.233 266.814 176.1C266.581 177.933 266.331 179.683 266.064 181.35C265.797 182.983 265.531 184.433 265.264 185.7C264.831 187.767 264.247 189.533 263.514 191C262.814 192.467 261.831 193.583 260.564 194.35C259.331 195.117 257.714 195.5 255.714 195.5C254.414 195.5 253.214 195.317 252.114 194.95V188.75C252.547 188.883 252.964 189 253.364 189.1C253.797 189.2 254.264 189.25 254.764 189.25C255.731 189.25 256.464 188.75 256.964 187.75C257.497 186.717 258.031 184.8 258.564 182C258.764 180.933 259.047 179.267 259.414 177C259.781 174.733 260.181 172.083 260.614 169.05C261.081 165.983 261.514 162.733 261.914 159.3H284.464V195Z" fill="black"></path>
<path d="M295.22 195V159.3H302.77V173H305.77C309.136 173 311.886 173.467 314.02 174.4C316.186 175.333 317.786 176.617 318.82 178.25C319.853 179.883 320.37 181.75 320.37 183.85C320.37 187.383 319.186 190.133 316.82 192.1C314.486 194.033 310.753 195 305.62 195H295.22ZM305.32 188.8C307.62 188.8 309.42 188.433 310.72 187.7C312.053 186.967 312.72 185.683 312.72 183.85C312.72 181.95 312.003 180.7 310.57 180.1C309.136 179.5 307.186 179.2 304.72 179.2H302.77V188.8H305.32Z" fill="black"></path>
<path d="M325.104 179.85H336.154V185.3H325.104V179.85Z" fill="black"></path>
<path d="M358.303 165.1C355.403 165.1 353.187 166.183 351.653 168.35C350.12 170.517 349.353 173.483 349.353 177.25C349.353 181.05 350.053 184 351.453 186.1C352.887 188.167 355.17 189.2 358.303 189.2C359.77 189.2 361.22 189.033 362.653 188.7C364.12 188.367 365.703 187.9 367.403 187.3V193.65C365.837 194.283 364.287 194.75 362.753 195.05C361.22 195.35 359.503 195.5 357.603 195.5C353.937 195.5 350.903 194.75 348.503 193.25C346.137 191.717 344.387 189.583 343.253 186.85C342.12 184.083 341.553 180.867 341.553 177.2C341.553 173.6 342.203 170.417 343.503 167.65C344.803 164.883 346.687 162.717 349.153 161.15C351.653 159.583 354.703 158.8 358.303 158.8C360.07 158.8 361.837 159.033 363.603 159.5C365.403 159.933 367.12 160.533 368.753 161.3L366.303 167.45C364.97 166.817 363.62 166.267 362.253 165.8C360.92 165.333 359.603 165.1 358.303 165.1Z" fill="black"></path>
<path d="M390.489 195H382.939V165.6H373.239V159.3H400.189V165.6H390.489V195Z" fill="black"></path>
<path d="M418.844 159.3C423.444 159.3 426.794 160.3 428.894 162.3C431.028 164.267 432.094 166.983 432.094 170.45C432.094 172.517 431.661 174.467 430.794 176.3C429.928 178.1 428.478 179.55 426.444 180.65C424.444 181.75 421.711 182.3 418.244 182.3H414.994V195H407.444V159.3H418.844ZM418.444 165.5H414.994V176.1H417.494C419.628 176.1 421.311 175.683 422.544 174.85C423.811 173.983 424.444 172.6 424.444 170.7C424.444 167.233 422.444 165.5 418.444 165.5Z" fill="black"></path>
<path d="M472.991 177.1C472.991 180.8 472.374 184.033 471.141 186.8C469.941 189.533 468.091 191.667 465.591 193.2C463.091 194.733 459.891 195.5 455.991 195.5C452.124 195.5 448.924 194.733 446.391 193.2C443.891 191.667 442.024 189.517 440.791 186.75C439.591 183.983 438.991 180.75 438.991 177.05C438.991 173.35 439.591 170.133 440.791 167.4C442.024 164.667 443.891 162.55 446.391 161.05C448.924 159.517 452.141 158.75 456.041 158.75C459.908 158.75 463.091 159.517 465.591 161.05C468.091 162.55 469.941 164.683 471.141 167.45C472.374 170.183 472.991 173.4 472.991 177.1ZM446.941 177.1C446.941 180.833 447.657 183.783 449.091 185.95C450.524 188.083 452.824 189.15 455.991 189.15C459.224 189.15 461.541 188.083 462.941 185.95C464.341 183.783 465.041 180.833 465.041 177.1C465.041 173.333 464.341 170.383 462.941 168.25C461.541 166.117 459.241 165.05 456.041 165.05C452.841 165.05 450.524 166.117 449.091 168.25C447.657 170.383 446.941 173.333 446.941 177.1Z" fill="black"></path>
<path d="M510.886 147.55C510.719 149.283 510.236 150.817 509.436 152.15C508.636 153.45 507.386 154.467 505.686 155.2C503.986 155.933 501.702 156.3 498.836 156.3C495.902 156.3 493.602 155.95 491.936 155.25C490.302 154.517 489.136 153.5 488.436 152.2C487.736 150.9 487.319 149.35 487.186 147.55H493.836C494.002 149.383 494.469 150.6 495.236 151.2C496.002 151.8 497.252 152.1 498.986 152.1C500.419 152.1 501.586 151.783 502.486 151.15C503.419 150.483 503.969 149.283 504.136 147.55H510.886ZM482.136 159.3H488.936V176.55C488.936 177.383 488.919 178.317 488.886 179.35C488.852 180.383 488.819 181.4 488.786 182.4C488.752 183.367 488.719 184.217 488.686 184.95C488.652 185.65 488.619 186.133 488.586 186.4H488.736L505.236 159.3H514.286V195H507.536V177.85C507.536 176.95 507.552 175.967 507.586 174.9C507.619 173.8 507.652 172.75 507.686 171.75C507.752 170.75 507.802 169.883 507.836 169.15C507.902 168.383 507.952 167.883 507.986 167.65H507.786L491.236 195H482.136V159.3Z" fill="black"></path>
<rect x="255.188" y="113.231" width="112.496" height="14.8165" fill="black"></rect>
<path d="M134 127.662L261.662 1.45085e-05L274.855 13.1931L160.386 127.662H134Z" fill="black"></path>
<path d="M389.657 128.047L261.796 0.186503L248.603 13.3796L363.271 128.246L389.657 128.047Z" fill="black"></path>
<path d="M281.848 127.892L215.033 61.076L201.84 74.2691L255.462 127.892L281.848 127.892Z" fill="black"></path>
</svg>