<svg width="60" height="60" viewBox="0 0 60 60" fill="none" xmlns="http://www.w3.org/2000/svg">
<g clip-path="url(#clip0)">
<path d="M12.3943 24.0674C12.4365 24.1695 12.5042 24.2753 12.5834 24.3526C12.8315 24.5934 13.2137 24.6758 13.5392 24.5417C13.5786 24.5247 13.617 24.506 13.6541 24.484C13.8743 24.3517 14.0112 24.1503 14.0624 23.9035C14.0739 23.8477 14.0798 23.7891 14.0798 23.7319C14.0798 23.5117 14.0107 23.3258 13.8674 23.1597C13.7901 23.07 13.6939 22.9981 13.5882 22.9454C13.52 22.912 13.4481 22.8887 13.374 22.8731C13.1432 22.8255 12.9116 22.8759 12.7166 23.004C12.6209 23.0668 12.5381 23.1496 12.4744 23.2462C12.4429 23.2938 12.4163 23.3442 12.3939 23.3968C12.3728 23.4504 12.3554 23.5053 12.3449 23.5611C12.3211 23.676 12.3234 23.7886 12.3449 23.9035C12.3554 23.9599 12.3733 24.0148 12.3943 24.0674Z" fill="#ffb515"/>
<path d="M15.4403 24.067C15.5035 24.224 15.6239 24.3664 15.7622 24.4611C15.8546 24.522 15.9691 24.5696 16.0776 24.592C16.2002 24.6172 16.2968 24.6149 16.42 24.592C16.5715 24.5637 16.7573 24.4602 16.8686 24.3526C17.1185 24.11 17.1895 23.7154 17.0576 23.3968C17.0325 23.3332 16.9949 23.2755 16.9578 23.2178C16.9336 23.1798 16.9011 23.1441 16.8686 23.113C16.7885 23.0329 16.6873 22.9656 16.5848 22.9235C16.5312 22.9015 16.4763 22.885 16.42 22.8736C16.1343 22.8141 15.8345 22.9075 15.6294 23.113C15.5896 23.1528 15.552 23.1981 15.5205 23.2462C15.4889 23.2938 15.4623 23.3442 15.4399 23.3968C15.4014 23.4884 15.3818 23.5877 15.3763 23.687C15.3694 23.8143 15.3918 23.9461 15.4403 24.067Z" fill="#ffb515"/>
<path d="M18.4854 24.0674C18.5472 24.2171 18.6744 24.3732 18.8077 24.4611C18.8557 24.4927 18.9061 24.5197 18.9596 24.5417C19.0118 24.5636 19.0672 24.5801 19.1231 24.592C19.232 24.6144 19.3561 24.6122 19.4655 24.592C19.5753 24.5714 19.6875 24.5224 19.7804 24.4611C19.8793 24.3956 19.9512 24.3238 20.0175 24.2272C20.0514 24.1768 20.0798 24.1233 20.1031 24.0674C20.1915 23.8532 20.1924 23.611 20.1031 23.3963C20.0592 23.2906 19.9946 23.1935 19.9136 23.113C19.7882 22.9871 19.6385 22.9093 19.4655 22.8731C19.3002 22.8388 19.1153 22.8589 18.9596 22.9234C18.9056 22.9459 18.8553 22.9724 18.8077 23.004C18.7124 23.0667 18.6277 23.1519 18.5655 23.2457C18.4039 23.4925 18.3728 23.7946 18.4854 24.0674Z" fill="#ffb515"/>
<path d="M47.3062 25.8243H12.6507C12.1669 25.8243 11.7746 26.2162 11.7746 26.7005C11.7746 27.1844 12.1669 27.5767 12.6507 27.5767H47.3062C47.7901 27.5767 48.1819 27.1844 48.1819 26.7005C48.1819 26.2166 47.7901 25.8243 47.3062 25.8243Z" fill="#ffb515"/>
<path d="M46.3042 29.0703H13.6523C12.6168 29.0703 11.7746 29.9126 11.7746 30.9485V38.9841C11.7746 40.0196 12.6168 40.8619 13.6523 40.8619H17.6472C18.1315 40.8619 18.5234 40.47 18.5234 39.9862C18.5234 39.5018 18.1311 39.11 17.6472 39.11H13.6523C13.5832 39.11 13.5269 39.0532 13.5269 38.9841V30.9485C13.5269 30.8789 13.5832 30.8226 13.6523 30.8226H46.3042C46.3733 30.8226 46.4301 30.8789 46.4301 30.9485V38.9841C46.4301 39.0532 46.3733 39.11 46.3042 39.11H22.982C22.4981 39.11 22.1058 39.5018 22.1058 39.9862C22.1058 40.47 22.4981 40.8619 22.982 40.8619H46.3042C47.3397 40.8619 48.1819 40.0196 48.1819 38.9841V30.9485C48.1819 29.9126 47.3397 29.0703 46.3042 29.0703Z" fill="#ffb515"/>
<path d="M13.6235 44.2356H25.5629C26.0468 44.2356 26.4391 43.8433 26.4391 43.3595C26.4391 42.8756 26.0468 42.4833 25.5629 42.4833H13.6235C13.1396 42.4833 12.7473 42.8756 12.7473 43.3595C12.7473 43.8433 13.1396 44.2356 13.6235 44.2356Z" fill="#ffb515"/>
<path d="M33.7455 44.2356C34.2293 44.2356 34.6216 43.8433 34.6216 43.3595C34.6216 42.8756 34.2293 42.4833 33.7455 42.4833H28.7906C28.3068 42.4833 27.9145 42.8756 27.9145 43.3595C27.9145 43.8433 28.3068 44.2356 28.7906 44.2356H33.7455Z" fill="#ffb515"/>
<path d="M46.3331 42.4833H37.0047C36.5209 42.4833 36.1286 42.8756 36.1286 43.3595C36.1286 43.8433 36.5209 44.2356 37.0047 44.2356H46.3331C46.8169 44.2356 47.2092 43.8433 47.2092 43.3595C47.2092 42.8756 46.8169 42.4833 46.3331 42.4833Z" fill="#ffb515"/>
<path d="M19.6193 46.0891H13.6235C13.1396 46.0891 12.7473 46.4814 12.7473 46.9653C12.7473 47.4491 13.1396 47.8414 13.6235 47.8414H19.6193C20.1031 47.8414 20.4954 47.4491 20.4954 46.9653C20.4954 46.4814 20.1031 46.0891 19.6193 46.0891Z" fill="#ffb515"/>
<path d="M37.0047 46.0891H23.8101C23.3262 46.0891 22.9339 46.4814 22.9339 46.9653C22.9339 47.4491 23.3262 47.8414 23.8101 47.8414H37.0047C37.4885 47.8414 37.8809 47.4491 37.8809 46.9653C37.8809 46.4814 37.4885 46.0891 37.0047 46.0891Z" fill="#ffb515"/>
<path d="M46.3331 46.0891H39.7179C39.234 46.0891 38.8417 46.4814 38.8417 46.9653C38.8417 47.4491 39.234 47.8414 39.7179 47.8414H46.3331C46.8169 47.8414 47.2092 47.4491 47.2092 46.9653C47.2092 46.4814 46.8169 46.0891 46.3331 46.0891Z" fill="#ffb515"/>
<path d="M58.9632 50.0167H56.4395V21.0599C58.6533 18.8114 60.022 15.7283 60.022 12.3313C60.022 5.46708 54.4373 -0.117188 47.5731 -0.117188C43.5896 -0.117188 39.8163 1.81229 37.4794 5.04457C37.196 5.43641 37.2839 5.98436 37.6762 6.26771C38.0681 6.55107 38.6156 6.46364 38.8994 6.07133C40.908 3.29362 44.1504 1.63514 47.5735 1.63514C53.4714 1.63514 58.2697 6.43342 58.2697 12.3317C58.2697 18.2296 53.4714 23.0278 47.5735 23.0278C41.6753 23.0278 36.877 18.2296 36.877 12.3317C36.877 11.8016 36.9163 11.2688 36.9932 10.7479C37.0646 10.2695 36.7337 9.82363 36.2553 9.75267C35.777 9.68126 35.3311 10.0122 35.2601 10.491C35.1704 11.0967 35.1246 11.7156 35.1246 12.3317C35.1246 13.2541 35.2263 14.1532 35.4176 15.0188H7.01974C5.08843 15.0188 3.51693 16.5903 3.51693 18.5221V50.0167H0.993272C0.509415 50.0167 0.117111 50.4086 0.117111 50.8929V56.1439C0.117111 58.2057 1.79436 59.8829 3.85613 59.8829H56.1003C58.1621 59.8829 59.8393 58.2057 59.8393 56.1439V50.8929C59.8393 50.4086 59.447 50.0167 58.9632 50.0167ZM51.833 24.029C52.8534 23.6564 53.8115 23.1533 54.6877 22.5408V50.0167H51.833V24.029ZM47.5731 24.7797C48.4319 24.7797 49.2705 24.6923 50.0807 24.5261V50.0167H9.87573V21.01C9.87573 20.9597 9.91693 20.9185 9.96729 20.9185H38.5684C40.8371 23.2961 44.035 24.7797 47.5731 24.7797ZM38.3784 51.7691L37.619 53.5076H22.3375L21.5776 51.7691H38.3784ZM5.26925 18.5221C5.26925 17.5566 6.05432 16.7711 7.01974 16.7711H35.9436C36.2677 17.6175 36.682 18.4195 37.1741 19.1661H9.96729C8.95059 19.1661 8.12341 19.9933 8.12341 21.01V50.0167H5.26925V18.5221ZM58.087 56.1439C58.087 57.2393 57.1958 58.1306 56.1003 58.1306H3.85613C2.7607 58.1306 1.86943 57.2393 1.86943 56.1439V51.7691H19.6655L20.8076 54.3829C21.0401 54.9157 21.5666 55.26 22.1479 55.26H37.8085C38.3899 55.26 38.9158 54.9157 39.1488 54.3829L40.291 51.7691H58.087V56.1439Z" fill="#ffb515"/>
<path d="M40.1468 12.6988C40.1468 13.9197 40.4402 15.136 40.9951 16.2154C41.1507 16.5175 41.4574 16.6915 41.7751 16.6915C41.9097 16.6915 42.0465 16.6599 42.1747 16.594C42.605 16.3729 42.7748 15.8446 42.5533 15.4143C42.1193 14.5697 41.8991 13.656 41.8991 12.6988C41.8991 9.84696 43.9174 7.45835 46.6008 6.88431L46.009 7.32285C45.6203 7.61124 45.5393 8.1601 45.8272 8.54874C45.9993 8.78037 46.2639 8.90305 46.5317 8.90305C46.713 8.90305 46.8961 8.84675 47.0531 8.73048L49.683 6.77902C49.9032 6.61606 50.0345 6.3588 50.0373 6.0846C50.04 5.81039 49.9141 5.55084 49.6972 5.38284L47.0673 3.3467C46.6851 3.05053 46.1344 3.12011 45.8382 3.50326C45.542 3.88595 45.6121 4.43618 45.9948 4.73236L46.496 5.12054C42.8925 5.7605 40.1468 8.91404 40.1468 12.6988Z" fill="#ffb515"/>
<path d="M48.5459 17.7786L49.1373 17.3396C49.526 17.0512 49.6075 16.5024 49.3191 16.1137C49.0307 15.7256 48.4823 15.6441 48.0932 15.9325L45.4633 17.8835C45.2431 18.0469 45.1122 18.3041 45.1095 18.5779C45.1067 18.8525 45.2321 19.1121 45.4491 19.2801L48.079 21.3162C48.2387 21.4398 48.4273 21.4993 48.615 21.4993C48.8764 21.4993 49.1355 21.3826 49.3081 21.1597C49.6042 20.777 49.5342 20.2268 49.1515 19.9306L48.6503 19.5424C52.2538 18.902 54.9995 15.7489 54.9995 11.9636C54.9995 10.7423 54.706 9.52651 54.1512 8.4471C53.9297 8.0168 53.4009 7.84743 52.9716 8.06853C52.5413 8.29009 52.3714 8.81835 52.593 9.24865C53.0274 10.0932 53.2476 11.0065 53.2476 11.9636C53.2476 14.816 51.2289 17.2046 48.5459 17.7786Z" fill="#ffb515"/>
</g>
<defs>
<clipPath id="clip0">
<rect width="60" height="60" fill="white"/>
</clipPath>
</defs>
</svg>
