<svg width="60" height="60" viewBox="0 0 60 60" fill="none" xmlns="http://www.w3.org/2000/svg">
<path d="M58.9319 45.377L56.8521 44.8403C56.667 44.2351 56.4248 43.6501 56.128 43.0919L57.2191 41.2419C57.4227 40.8967 57.367 40.4573 57.0836 40.174L55.7396 38.8299C56.9831 35.5754 57.6142 32.1449 57.6142 28.6233C57.6142 20.9779 54.6367 13.79 49.2305 8.38378C43.8242 2.97741 36.6364 0 28.9909 0C13.7817 0 1.22742 11.8855 0.409912 27.0583C0.383779 27.543 0.755618 27.9571 1.24031 27.9833C1.72641 28.0085 2.13914 27.6376 2.16528 27.1529C2.93239 12.9128 14.7157 1.75783 28.9909 1.75783C43.8046 1.75783 55.8563 13.8096 55.8563 28.6233C55.8563 31.7701 55.3189 34.8385 54.261 37.7603C54.1222 37.7671 53.9835 37.8059 53.8576 37.8803L52.0074 38.9715C51.9344 38.9327 51.8596 38.8973 51.7857 38.8604C53.2372 35.6385 53.9743 32.1997 53.9743 28.6234C53.9743 22.834 51.9486 17.1905 48.2701 12.7323C47.9611 12.3578 47.4072 12.3049 47.0327 12.6137C46.6584 12.9226 46.6054 13.4766 46.9141 13.851C50.3334 17.995 52.2163 23.2413 52.2163 28.6234C52.2163 31.9229 51.5415 35.0959 50.2131 38.0702L49.7221 36.1675C49.622 35.7794 49.272 35.5082 48.8711 35.5082H45.819C45.4181 35.5082 45.0682 35.7794 44.968 36.1675L44.4313 38.2475C43.8261 38.4325 43.2411 38.6748 42.6829 38.9715L40.8328 37.8803C40.4873 37.6765 40.0481 37.7326 39.7648 38.0159L37.6068 40.174C37.3234 40.4573 37.2677 40.8967 37.4713 41.2419L38.5625 43.0919C38.2658 43.6501 38.0234 44.2351 37.8384 44.8403L35.7585 45.377C35.3704 45.4772 35.0992 45.8272 35.0992 46.228V49.28C35.0992 49.6807 35.3704 50.0308 35.7585 50.131L36.9652 50.4423C34.4187 51.3749 31.7435 51.8487 28.9906 51.8487C16.1841 51.8487 5.76507 41.4297 5.76507 28.6232C5.76507 15.8166 16.1841 5.39758 28.9906 5.39758C34.6511 5.39758 40.1048 7.45752 44.347 11.1979C44.7109 11.5189 45.2664 11.484 45.5876 11.1199C45.9086 10.7558 45.8736 10.2004 45.5095 9.87945C40.946 5.85579 35.0794 3.63976 28.9906 3.63976C22.3174 3.63976 16.0434 6.23841 11.3246 10.9572C6.6059 15.6759 4.00725 21.9499 4.00725 28.6232C4.00725 35.2964 6.6059 41.5704 11.3246 46.2891C16.0433 51.0079 22.3172 53.6066 28.9906 53.6066C32.2068 53.6066 35.325 53.0055 38.2749 51.8225C38.3649 52.023 38.4591 52.2217 38.5625 52.416L37.5787 54.0842C34.8209 55.0156 31.9342 55.4886 28.9908 55.4886C15.1168 55.4886 3.35697 44.6723 2.21836 30.8643C2.1784 30.3805 1.75336 30.0211 1.27019 30.0606C0.786439 30.1004 0.426553 30.525 0.466514 31.0088C1.05468 38.1423 4.28287 44.7581 9.55635 49.6374C14.8595 54.5442 21.7614 57.2464 28.9908 57.2464C32.0946 57.2464 35.1402 56.7529 38.0528 55.7799L39.765 57.4921C40.0484 57.7754 40.4874 57.8311 40.8329 57.6276L42.6831 56.5365C43.2412 56.8332 43.8262 57.0754 44.4314 57.2605L44.9681 59.3405C45.0682 59.7286 45.4182 59.9998 45.8191 59.9998H48.8712C49.2721 59.9998 49.622 59.7286 49.7222 59.3405L50.2589 57.2605C50.8641 57.0754 51.4491 56.8332 52.0073 56.5365L53.8574 57.6276C54.2027 57.8312 54.642 57.7754 54.9254 57.4921L57.0834 55.334C57.3668 55.0507 57.4226 54.6113 57.2189 54.2661L56.1277 52.416C56.4245 51.8579 56.6668 51.2729 56.8518 50.6677L58.9317 50.131C59.3198 50.0308 59.591 49.6807 59.591 49.28V46.228C59.5912 45.8272 59.3201 45.4772 58.9319 45.377ZM57.8334 48.5991L55.9213 49.0925C55.6087 49.1731 55.3655 49.4186 55.2878 49.732C55.0918 50.5222 54.7797 51.2756 54.3603 51.9714C54.1937 52.2479 54.192 52.5936 54.3561 52.8717L55.3592 54.5727L54.1641 55.7677L52.4631 54.7646C52.1852 54.6007 51.8397 54.6022 51.563 54.7689C50.8671 55.1884 50.1136 55.5004 49.3233 55.6965C49.0101 55.7743 48.7646 56.0174 48.684 56.3299L48.1906 58.2421H46.5004L46.0069 56.3299C45.9262 56.0174 45.6809 55.7742 45.3676 55.6965C44.5773 55.5004 43.8238 55.1884 43.1279 54.7689C42.8515 54.6024 42.5059 54.6007 42.2278 54.7646L40.5268 55.7677L39.3317 54.5727L40.3348 52.8717C40.4988 52.5936 40.4973 52.248 40.3306 51.9714C39.9112 51.2756 39.5991 50.522 39.4031 49.732C39.3254 49.4187 39.0822 49.1732 38.7697 49.0925L36.8575 48.5991V46.9089L38.7697 46.4155C39.0822 46.3349 39.3254 46.0894 39.4031 45.776C39.5991 44.9858 39.9112 44.2324 40.3306 43.5366C40.4973 43.2601 40.4989 42.9144 40.3348 42.6363L39.3317 40.9353L40.5268 39.7402L42.2278 40.7434C42.5058 40.9073 42.8512 40.9057 43.1279 40.739C43.8238 40.3196 44.5773 40.0075 45.3676 39.8115C45.6809 39.7338 45.9264 39.4906 46.0069 39.1781L46.5002 37.2659H48.1904L48.6839 39.1781C48.7646 39.4906 49.0099 39.7338 49.3232 39.8115C50.1135 40.0075 50.867 40.3196 51.5629 40.739C51.8393 40.9056 52.1849 40.9073 52.463 40.7434L54.164 39.7402L55.3591 40.9353L54.356 42.6363C54.192 42.9144 54.1935 43.26 54.3602 43.5366C54.7796 44.2324 55.0917 44.9859 55.2877 45.776C55.3654 46.0893 55.6086 46.3348 55.9211 46.4155L57.8333 46.9089V48.5991H57.8334Z" fill="#ffb515"/>
<path d="M52.7859 48.8456C52.3313 48.6758 51.8249 48.9071 51.6554 49.3621C51.0219 51.0612 49.1545 52.3539 47.345 52.3539C44.8372 52.3539 42.7465 50.2564 42.7465 47.7542C42.7465 45.2523 44.8374 43.1546 47.345 43.1546C49.154 43.1546 51.0217 44.447 51.6555 46.1455C51.8251 46.6003 52.3313 46.8314 52.7861 46.6617C53.2409 46.492 53.472 45.9858 53.3022 45.531C52.3856 43.0744 49.9679 41.3968 47.3449 41.3968C43.911 41.3968 40.9886 44.3278 40.9886 47.7542C40.9886 51.1835 43.9074 54.1117 47.3449 54.1117C49.9802 54.1117 52.3831 52.4416 53.3023 49.9761C53.472 49.5213 53.2407 49.0151 52.7859 48.8456Z" fill="#ffb515"/>
<path d="M29.87 10.3053V8.03491C29.87 7.54952 29.4765 7.15601 28.9911 7.15601C28.5057 7.15601 28.1122 7.54952 28.1122 8.03491V10.3053C28.1122 10.7907 28.5057 11.1842 28.9911 11.1842C29.4765 11.1842 29.87 10.7907 29.87 10.3053Z" fill="#ffb515"/>
<path d="M28.1122 46.9412V49.2116C28.1122 49.697 28.5057 50.0905 28.9911 50.0905C29.4765 50.0905 29.87 49.697 29.87 49.2116V46.9412C29.87 46.4558 29.4765 46.0623 28.9911 46.0623C28.5057 46.0623 28.1122 46.4558 28.1122 46.9412Z" fill="#ffb515"/>
<path d="M11.5521 28.6233C11.5521 28.1379 11.1586 27.7444 10.6732 27.7444H8.40289C7.9175 27.7444 7.52399 28.1379 7.52399 28.6233C7.52399 29.1087 7.9175 29.5022 8.40289 29.5022H10.6733C11.1586 29.5022 11.5521 29.1087 11.5521 28.6233Z" fill="#ffb515"/>
<path d="M46.4303 28.6233C46.4303 29.1087 46.8237 29.5022 47.3092 29.5022H49.5795C50.065 29.5022 50.4584 29.1087 50.4584 28.6233C50.4584 28.1379 50.065 27.7444 49.5795 27.7444H47.3092C46.8237 27.7444 46.4303 28.1379 46.4303 28.6233Z" fill="#ffb515"/>
<path d="M11.6006 39.6786L13.5667 38.5434C13.9871 38.3007 14.1311 37.7631 13.8884 37.3428C13.6456 36.9223 13.1079 36.7786 12.6878 37.0211L10.7217 38.1563C10.3013 38.399 10.1472 38.9425 10.4 39.3569C10.6509 39.7683 11.2053 39.9158 11.6006 39.6786Z" fill="#ffb515"/>
<path d="M46.3817 17.5679L44.4156 18.7031C43.9953 18.9458 43.8513 19.4834 44.094 19.9037C44.4499 20.3486 44.85 20.4558 45.2945 20.2254L47.2606 19.0902C47.6809 18.8475 47.825 18.31 47.5823 17.8896C47.3395 17.4691 46.8019 17.3252 46.3817 17.5679Z" fill="#ffb515"/>
<path d="M13.5667 18.7031L11.6006 17.5679C11.1801 17.325 10.6427 17.4692 10.4 17.8896C10.1573 18.31 10.3013 18.8475 10.7217 19.0902L12.6878 20.2254C13.1323 20.4558 13.5325 20.3486 13.8884 19.9037C14.1312 19.4834 13.9872 18.9458 13.5667 18.7031Z" fill="#ffb515"/>
<path d="M20.2717 43.7259C19.8514 43.4831 19.3138 43.6271 19.0711 44.0476L17.9359 46.0138C17.6932 46.4341 17.8209 47.0024 18.2576 47.2144C18.7663 47.4613 19.2628 47.3082 19.4582 46.8927L20.5934 44.9265C20.8361 44.5061 20.6921 43.9686 20.2717 43.7259Z" fill="#ffb515"/>
<path d="M38.9114 13.1988L40.0466 11.2326C40.2893 10.8123 40.1452 10.2747 39.7249 10.032C39.3043 9.78923 38.7669 9.93337 38.5243 10.3537L37.3891 12.3199C37.1464 12.7402 37.2861 13.2855 37.7108 13.5205C38.1609 13.7696 38.7173 13.6385 38.9114 13.1988Z" fill="#ffb515"/>
<path d="M20.5934 12.3199L19.4582 10.3537C19.2155 9.93335 18.6777 9.78932 18.2576 10.032C17.8373 10.2747 17.6932 10.8123 17.9359 11.2326L19.0711 13.1988C19.427 13.6436 19.8272 13.7508 20.2717 13.5205C20.6921 13.2778 20.8361 12.7402 20.5934 12.3199Z" fill="#ffb515"/>
<path d="M39.4682 31.3222C39.7671 31.3222 40.0455 31.1704 40.2072 30.9191L41.3791 29.0991C41.5658 28.8092 41.5658 28.4373 41.3791 28.1475L40.2072 26.3274C40.0455 26.0762 39.7671 25.9243 39.4682 25.9243H31.6902V14.7915C31.6902 14.4927 31.5383 14.2144 31.2872 14.0525L29.467 12.8806C29.1772 12.6941 28.8053 12.6941 28.5155 12.8806L26.6954 14.0525C26.4441 14.2143 26.2923 14.4927 26.2923 14.7915V26.514C25.8363 27.0961 25.5635 27.8281 25.5635 28.6233C25.5635 30.5133 27.1011 32.051 28.9912 32.051C29.7864 32.051 30.5184 31.7782 31.1005 31.3222H39.4682ZM39.5948 28.6233L38.9888 29.5644H32.2865C32.4631 28.937 32.4631 28.3096 32.2865 27.6821H38.9888L39.5948 28.6233ZM28.9911 14.665L29.9323 15.2709V25.3279C29.3048 25.1513 28.6774 25.1513 28.05 25.3279V15.2709L28.9911 14.665ZM27.3213 28.6233C27.3213 27.7025 28.0704 26.9533 28.9912 26.9533C29.9121 26.9533 30.6612 27.7025 30.6612 28.6233C30.6612 29.544 29.912 30.2932 28.9912 30.2932C28.0705 30.2932 27.3213 29.544 27.3213 28.6233Z" fill="#ffb515"/>
</svg>
