<svg width="60" height="60" viewBox="0 0 60 60" fill="none" xmlns="http://www.w3.org/2000/svg">
<path d="M21.0742 8.16777C21.0742 9.80195 22.4038 11.1316 24.0379 11.1316C25.6721 11.1316 27.0017 9.80195 27.0017 8.16777C27.0017 6.53359 25.6721 5.20398 24.0379 5.20398C22.4038 5.20398 21.0742 6.53347 21.0742 8.16777ZM25.2439 8.16777C25.2439 8.83269 24.703 9.37374 24.0379 9.37374C23.3729 9.37374 22.832 8.83269 22.832 8.16777C22.832 7.50285 23.3729 6.96179 24.0379 6.96179C24.703 6.96179 25.2439 7.50273 25.2439 8.16777Z" fill="#ffb515"/>
<path d="M12.7053 8.16777C12.7053 9.80195 14.0349 11.1316 15.6692 11.1316C17.3033 11.1316 18.633 9.80195 18.633 8.16777C18.633 6.53359 17.3033 5.20398 15.6692 5.20398C14.0349 5.20398 12.7053 6.53347 12.7053 8.16777ZM16.8751 8.16777C16.8751 8.83269 16.3342 9.37374 15.6692 9.37374C15.0041 9.37374 14.4631 8.83269 14.4631 8.16777C14.4631 7.50285 15.0041 6.96179 15.6692 6.96179C16.3342 6.96179 16.8751 7.50273 16.8751 8.16777Z" fill="#ffb515"/>
<path d="M4.33629 8.16777C4.33629 9.80195 5.6659 11.1316 7.30019 11.1316C8.93437 11.1316 10.264 9.80195 10.264 8.16777C10.264 6.53359 8.93437 5.20398 7.30019 5.20398C5.6659 5.20398 4.33629 6.53347 4.33629 8.16777ZM8.50617 8.16777C8.50617 8.83269 7.96523 9.37374 7.30019 9.37374C6.63516 9.37374 6.0941 8.83269 6.0941 8.16777C6.0941 7.50285 6.63516 6.96179 7.30019 6.96179C7.96523 6.96179 8.50617 7.50273 8.50617 8.16777Z" fill="#ffb515"/>
<path d="M57.3633 1.00854H2.63672C1.18289 1.00854 0 2.19132 0 3.64526V37.7786C0 38.264 0.393398 38.6575 0.878906 38.6575C1.36441 38.6575 1.75781 38.264 1.75781 37.7786V15.327H34.6403C35.1258 15.327 35.5192 14.9335 35.5192 14.4481C35.5192 13.9627 35.1258 13.5692 34.6403 13.5692H1.75781V3.64526C1.75781 3.16058 2.15203 2.76636 2.63672 2.76636H57.3633C57.848 2.76636 58.2422 3.16058 58.2422 3.64526V13.5692H38.4707C37.9852 13.5692 37.5918 13.9627 37.5918 14.4481C37.5918 14.9335 37.9852 15.327 38.4707 15.327H58.2422V56.3548C58.2422 56.8395 57.848 57.2337 57.3633 57.2337H2.63672C2.15203 57.2337 1.75781 56.8395 1.75781 56.3548V41.6091C1.75781 41.1237 1.36441 40.7302 0.878906 40.7302C0.393398 40.7302 0 41.1237 0 41.6091V56.3549C0 57.8089 1.18289 58.9916 2.63672 58.9916H57.3633C58.8171 58.9916 60 57.8089 60 56.3549V3.64526C60 2.19132 58.8171 1.00854 57.3633 1.00854Z" fill="#ffb515"/>
<path d="M28.6655 37.8195H31.3346C31.5136 37.8195 31.6342 37.6364 31.5635 37.472L30.7354 35.5459C31.2519 35.2606 31.5853 34.6847 31.5137 34.0384C31.4365 33.3408 30.8711 32.7755 30.1735 32.6985C29.2546 32.597 28.4768 33.3137 28.4768 34.2122C28.4768 34.7867 28.7951 35.2865 29.2646 35.5459L28.4367 37.472C28.3659 37.6364 28.4865 37.8195 28.6655 37.8195Z" fill="#ffb515"/>
<path d="M11.7317 46.7827C11.7317 50.1825 14.4977 52.9484 17.8973 52.9484H42.1025C45.5022 52.9484 48.2681 50.1824 48.2681 46.7827C48.2681 43.383 45.5021 40.617 42.1025 40.617H37.2072C37.7262 39.5426 37.9976 38.3651 37.9976 37.148V30.0293C37.9976 28.8986 37.0775 27.9785 35.9468 27.9785H35.7663V26.2574C35.7663 23.0779 33.1795 20.4911 30 20.4911C26.8204 20.4911 24.2337 23.0779 24.2337 26.2574V27.9785H24.0532C22.9224 27.9785 22.0024 28.8986 22.0024 30.0293V32.3636C22.0024 32.849 22.3958 33.2425 22.8813 33.2425C23.3668 33.2425 23.7602 32.849 23.7602 32.3636V30.0293C23.7602 29.8678 23.8916 29.7364 24.0532 29.7364H35.9468C36.1084 29.7364 36.2397 29.8678 36.2397 30.0293V37.148C36.2397 38.3953 35.8765 39.5896 35.1872 40.617H24.8127C24.1235 39.5897 23.7602 38.3955 23.7602 37.148V36.194C23.7602 35.7086 23.3668 35.3151 22.8813 35.3151C22.3958 35.3151 22.0024 35.7086 22.0024 36.194V37.148C22.0024 38.3651 22.2737 39.5425 22.7926 40.617H17.8973C14.4977 40.617 11.7317 43.383 11.7317 46.7827ZM25.9915 26.2575C25.9915 24.0473 27.7897 22.249 30 22.249C32.2103 22.249 34.0085 24.0473 34.0085 26.2575V27.9787H25.9915V26.2575ZM46.5104 46.7827C46.5104 49.2133 44.5331 51.1906 42.1026 51.1906H17.8974C15.467 51.1906 13.4897 49.2132 13.4897 46.7827C13.4897 44.3522 15.467 42.3748 17.8974 42.3748H42.1026C44.5331 42.3748 46.5104 44.3522 46.5104 46.7827Z" fill="#ffb515"/>
<path d="M19.5266 48.2785C19.6895 48.5604 19.9848 48.7181 20.2885 48.7181C20.4376 48.7181 20.5889 48.6801 20.7272 48.6002L21.2382 48.3051V48.8953C21.2382 49.3806 21.6316 49.7742 22.1171 49.7742C22.6026 49.7742 22.996 49.3806 22.996 48.8953V48.3051L23.5071 48.6002C23.6455 48.6801 23.7967 48.7181 23.9457 48.7181C24.2495 48.7181 24.5449 48.5604 24.7077 48.2785C24.9504 47.8581 24.8064 47.3206 24.386 47.0779L23.8748 46.7828L24.386 46.4878C24.8064 46.2451 24.9504 45.7075 24.7077 45.2872C24.4649 44.8667 23.9272 44.7227 23.5071 44.9655L22.996 45.2606V44.6704C22.996 44.185 22.6026 43.7915 22.1171 43.7915C21.6316 43.7915 21.2382 44.185 21.2382 44.6704V45.2606L20.7272 44.9655C20.3068 44.7227 19.769 44.8667 19.5266 45.2872C19.2839 45.7075 19.4279 46.2451 19.8483 46.4878L20.3594 46.7828L19.8483 47.0779C19.4279 47.3206 19.2839 47.8581 19.5266 48.2785Z" fill="#ffb515"/>
<path d="M27.4094 48.2785C27.5723 48.5604 27.8676 48.7181 28.1714 48.7181C28.3206 48.7181 28.4718 48.6801 28.61 48.6002L29.1211 48.3051V48.8952C29.1211 49.3806 29.5145 49.7742 30 49.7742C30.4855 49.7742 30.8789 49.3806 30.8789 48.8952V48.3051L31.3899 48.6002C31.5283 48.6801 31.6795 48.7181 31.8286 48.7181C32.1323 48.7181 32.4278 48.5604 32.5905 48.2785C32.8332 47.8581 32.6892 47.3206 32.2689 47.0779L31.7578 46.7827L32.269 46.4876C32.6893 46.2449 32.8333 45.7074 32.5906 45.287C32.348 44.8666 31.8103 44.7226 31.3901 44.9654L30.879 45.2604V44.6703C30.879 44.1849 30.4856 43.7914 30.0001 43.7914C29.5146 43.7914 29.1212 44.1849 29.1212 44.6703V45.2604L28.6101 44.9654C28.1899 44.7226 27.6521 44.8666 27.4096 45.287C27.1669 45.7074 27.3109 46.2449 27.7312 46.4876L28.2424 46.7827L27.7312 47.0778C27.3108 47.3206 27.1666 47.8581 27.4094 48.2785Z" fill="#ffb515"/>
<path d="M35.2922 48.2785C35.4551 48.5604 35.7504 48.7181 36.0541 48.7181C36.2032 48.7181 36.3545 48.6801 36.4928 48.6002L37.0038 48.3051V48.8953C37.0038 49.3806 37.3972 49.7742 37.8827 49.7742C38.3682 49.7742 38.7616 49.3806 38.7616 48.8953V48.3051L39.2727 48.6002C39.4111 48.6801 39.5623 48.7181 39.7113 48.7181C40.0151 48.7181 40.3105 48.5604 40.4733 48.2785C40.716 47.8581 40.5719 47.3206 40.1516 47.0779L39.6404 46.7828L40.1516 46.4878C40.5719 46.2451 40.716 45.7075 40.4733 45.2872C40.2305 44.8667 39.6929 44.7227 39.2727 44.9655L38.7616 45.2606V44.6704C38.7616 44.185 38.3682 43.7915 37.8827 43.7915C37.3972 43.7915 37.0038 44.185 37.0038 44.6704V45.2606L36.4928 44.9655C36.0724 44.7227 35.5348 44.8667 35.2922 45.2872C35.0495 45.7075 35.1935 46.2451 35.6139 46.4878L36.125 46.7828L35.6139 47.0779C35.1935 47.3206 35.0495 47.8581 35.2922 48.2785Z" fill="#ffb515"/>
</svg>
