<svg width="60" height="60" viewBox="0 0 60 60" fill="none" xmlns="http://www.w3.org/2000/svg">
<g clip-path="url(#clip0_1014:155)">
<path d="M44.1096 28.7225C40.9618 28.7225 38.4009 31.2834 38.4009 34.4312C38.4009 37.579 40.9618 40.1399 44.1096 40.1399C45.6345 40.1399 47.068 39.5461 48.1463 38.4677C48.4901 38.1239 48.4901 37.5663 48.1463 37.2225C47.8023 36.8788 47.2448 36.8787 46.901 37.2226C46.1554 37.9683 45.1642 38.3788 44.1097 38.3788C41.9331 38.3788 40.1623 36.608 40.1623 34.4312C40.1623 32.2546 41.9331 30.4837 44.1097 30.4837C46.2864 30.4837 48.0572 32.2546 48.0572 34.4312C48.0572 34.9175 48.4514 35.3118 48.9377 35.3118C49.4241 35.3118 49.8183 34.9175 49.8183 34.4312C49.8182 31.2834 47.2574 28.7225 44.1096 28.7225Z" fill="#ffb515"/>
<path d="M56.0609 32.0439C56.0609 32.0439 56.0609 32.0439 56.0608 32.0439L54.554 31.8175C54.2975 30.7857 53.8918 29.8069 53.3426 28.8946L54.2484 27.6683C54.7328 27.0125 54.6659 26.118 54.0893 25.5417L52.9989 24.4514C52.4226 23.8748 51.5281 23.808 50.8723 24.2923L49.646 25.198C48.7337 24.649 47.7548 24.2433 46.7233 23.9866L46.4968 22.48C46.3756 21.6737 45.6959 21.0885 44.8806 21.0885H43.3385C42.5233 21.0885 41.8436 21.6737 41.7224 22.4798L41.4959 23.9866C40.4644 24.2433 39.4854 24.649 38.573 25.198L37.3467 24.2923C36.691 23.8079 35.7965 23.8748 35.2201 24.4513L34.1297 25.5417C33.5532 26.118 33.4862 27.0125 33.9707 27.6683L34.8764 28.8946C34.3274 29.8069 33.9216 30.7859 33.6651 31.8175L32.1582 32.0439C31.3519 32.1652 30.7669 32.8448 30.7669 33.6601V35.2023C30.7669 36.0176 31.352 36.6971 32.1584 36.8185L33.6652 37.045C33.9217 38.0766 34.3274 39.0554 34.8764 39.9677L33.9707 41.194C33.4864 41.8496 33.5532 42.7441 34.1297 43.3207L35.2201 44.411C35.7966 44.9876 36.691 45.0546 37.3469 44.57L38.5731 43.6644C39.4854 44.2134 40.4644 44.6191 41.496 44.8758L41.7225 46.3825C41.8437 47.1887 42.5234 47.7738 43.3387 47.7738H44.8807C45.6961 47.7738 46.3758 47.1887 46.4969 46.3826L46.7234 44.8758C47.755 44.6191 48.734 44.2134 49.6462 43.6644L50.8724 44.57C51.5282 45.0546 52.4227 44.9877 52.999 44.4111L54.0896 43.3206C54.666 42.7441 54.7328 41.8496 54.2485 41.194L53.3427 39.9678C53.8919 39.0555 54.2976 38.0766 54.554 37.0451L56.0609 36.8187C56.867 36.6974 57.4521 36.0177 57.4521 35.2024V33.6602C57.4521 32.8448 56.867 32.1653 56.0609 32.0439ZM55.691 35.0931L53.6923 35.3934C53.3216 35.4491 53.0268 35.7335 52.9576 36.1018C52.7277 37.328 52.2531 38.4731 51.5471 39.5058C51.3355 39.8152 51.3429 40.2246 51.5656 40.526L52.7669 42.1523L51.8308 43.0884L50.2044 41.8871C49.903 41.6646 49.4936 41.6571 49.1843 41.8686C48.1517 42.5747 47.0064 43.0494 45.7803 43.2793C45.4118 43.3484 45.1275 43.6431 45.0719 44.0139L44.7714 46.0125H43.4476L43.1472 44.0139C43.0914 43.6432 42.8072 43.3484 42.4388 43.2793C41.2128 43.0493 40.0675 42.5747 39.0347 41.8686C38.7253 41.657 38.316 41.6645 38.0146 41.8873L36.3883 43.0885L35.4522 42.1523L36.6535 40.526C36.8761 40.2246 36.8836 39.8152 36.672 39.5058C35.9658 38.473 35.4913 37.3278 35.2614 36.1018C35.1923 35.7334 34.8975 35.4491 34.5267 35.3934L32.528 35.0931V33.7692L34.5267 33.4689C34.8974 33.4132 35.1923 33.1288 35.2614 32.7603C35.4913 31.5342 35.9659 30.3891 36.672 29.3564C36.8835 29.047 36.8761 28.6376 36.6535 28.3362L35.4522 26.7097L36.3883 25.7736L38.0146 26.9749C38.3159 27.1977 38.7252 27.2051 39.0347 26.9937C40.0675 26.2876 41.2128 25.8129 42.4388 25.583C42.8072 25.5139 43.0915 25.2191 43.1472 24.8484L43.4476 22.8496H44.7714L45.0719 24.8484C45.1275 25.2191 45.4119 25.5139 45.7803 25.583C47.0064 25.813 48.1517 26.2876 49.1843 26.9937C49.4937 27.2052 49.903 27.1978 50.2044 26.975L51.8308 25.7737L52.7669 26.7097L51.5656 28.3362C51.3429 28.6377 51.3354 29.047 51.5471 29.3564C52.2531 30.3889 52.7277 31.5341 52.9576 32.7603C53.0268 33.1288 53.3215 33.4131 53.6923 33.4689L55.691 33.7692V35.0931Z" fill="#ffb515"/>
<path d="M20.4686 21.4592C21.3071 21.8064 22.1761 21.9707 23.0318 21.9707C25.6721 21.9707 28.1825 20.4055 29.2536 17.818C30.6717 14.3921 29.0383 10.4511 25.6124 9.03315C22.7256 7.83807 19.3296 8.82467 17.5376 11.3795C17.2583 11.7776 17.3546 12.3267 17.7528 12.606C18.1509 12.8853 18.7001 12.789 18.9794 12.3908C20.3017 10.5061 22.8081 9.77823 24.9388 10.6604C27.4674 11.7071 28.6731 14.616 27.6263 17.1446C26.5795 19.6732 23.6708 20.8788 21.1422 19.8322C19.2802 19.0614 18.0765 17.2611 18.0758 15.246C18.0757 14.7596 17.6813 14.3658 17.1952 14.3658C17.1951 14.3658 17.195 14.3658 17.1949 14.3658C16.7086 14.366 16.3145 14.7605 16.3147 15.2467C16.3158 17.9764 17.9463 20.4151 20.4686 21.4592Z" fill="#ffb515"/>
<path d="M8.66545 12.2246L10.3524 13.2396C10.1392 14.5745 10.1398 15.9211 10.354 17.2582L8.66686 18.2746C7.90081 18.736 7.59331 19.6706 7.93573 20.4969L8.65034 22.221C8.99276 23.0473 9.87108 23.4905 10.7393 23.2745L12.6507 22.7993C13.4451 23.8956 14.3977 24.8481 15.4924 25.6406L15.0182 27.5516C14.8029 28.4195 15.2464 29.2978 16.0726 29.6399L17.7971 30.3535C18.0238 30.4474 18.2585 30.4925 18.4896 30.4925C19.1007 30.4925 19.6846 30.1778 20.0192 29.6216L21.0342 27.9347C22.3691 28.148 23.7158 28.1473 25.0528 27.933L26.0691 29.62C26.5306 30.3861 27.4654 30.6937 28.2914 30.3512L30.0158 29.6365C30.842 29.2939 31.285 28.4155 31.0692 27.5476L30.5939 25.6363C31.6905 24.8419 32.6427 23.8895 33.4354 22.7945L35.3462 23.2687C36.2144 23.484 37.0926 23.0407 37.4345 22.2144L38.1484 20.4899C38.4905 19.6635 38.1826 18.729 37.4162 18.2678L35.7293 17.2528C35.9424 15.9182 35.9419 14.5712 35.7277 13.2342L37.4148 12.2178C38.1809 11.7565 38.4884 10.8219 38.146 9.9955L37.4312 8.2712C37.0888 7.44515 36.2107 7.00194 35.3424 7.2178L33.431 7.693C32.6366 6.59659 31.6842 5.64433 30.5894 4.85167L31.0636 2.94093C31.279 2.07292 30.8356 1.19448 30.0092 0.852412L28.2845 0.138505C27.4582 -0.203565 26.5238 0.104404 26.0626 0.870693L25.0477 2.55761C23.7129 2.34444 22.3661 2.34503 21.0291 2.55925L20.0128 0.872099C19.5514 0.106044 18.6169 -0.201339 17.7905 0.140966L16.0664 0.855693C15.24 1.198 14.7971 2.07655 15.0129 2.94456L15.4882 4.85601C14.3917 5.65042 13.4392 6.60304 12.6468 7.6978L10.7356 7.22366C9.86768 7.00851 8.98913 7.45148 8.64706 8.278L7.93315 10.0026C7.59108 10.8291 7.89905 11.7635 8.66545 12.2246ZM9.56042 10.6762L10.2743 8.95171C10.2803 8.9373 10.2961 8.92909 10.3112 8.93296L12.8139 9.55405C13.1776 9.64464 13.5589 9.4944 13.7636 9.18034C14.6024 7.89397 15.6815 6.8148 16.9709 5.97257C17.2846 5.76772 17.4344 5.38651 17.3439 5.02288L16.7214 2.51952C16.7176 2.50452 16.7256 2.4887 16.7401 2.48272L18.4644 1.768C18.4789 1.76167 18.4956 1.76729 18.5038 1.78101L19.8347 3.99058C20.0281 4.31155 20.4035 4.47503 20.7702 4.39792C22.2774 4.08104 23.8034 4.08046 25.3063 4.39604C25.6735 4.47327 26.0487 4.30944 26.2418 3.98835L27.5713 1.77878C27.5795 1.76519 27.5962 1.76003 27.6107 1.76577L29.3353 2.47968C29.35 2.48577 29.3578 2.50136 29.354 2.51671L28.7329 5.01937C28.6425 5.38312 28.7925 5.76433 29.1066 5.96905C30.3931 6.808 31.4722 7.88706 32.3142 9.17636C32.5192 9.49019 32.9002 9.63972 33.264 9.54937L35.7672 8.92687C35.7822 8.92347 35.7982 8.93108 35.8042 8.94562L36.5188 10.6698C36.5249 10.6844 36.5194 10.7011 36.5059 10.7093L34.2965 12.0401C33.9754 12.2335 33.812 12.6089 33.8891 12.9756C34.206 14.4827 34.2066 16.009 33.8909 17.5118C33.8138 17.8787 33.9775 18.2541 34.2987 18.4474L36.5082 19.7769C36.5217 19.785 36.5271 19.8015 36.5212 19.8163L35.8073 21.5409C35.8013 21.5552 35.7851 21.5637 35.7703 21.5594L33.2677 20.9384C32.9039 20.8478 32.5227 20.9979 32.318 21.3121C31.4789 22.5986 30.4 23.6778 29.1107 24.5198C28.797 24.7247 28.6472 25.1059 28.7377 25.4695L29.3602 27.9727C29.3639 27.9878 29.3558 28.0037 29.3415 28.0097L27.6171 28.7244C27.6027 28.7305 27.5858 28.7246 27.5778 28.7113L26.2469 26.5018C26.0535 26.1807 25.6777 26.017 25.3114 26.0945C23.8046 26.4115 22.2784 26.4121 20.7753 26.0964C20.4087 26.019 20.033 26.183 19.8398 26.5041L18.5103 28.7135V28.7136C18.5022 28.7269 18.4854 28.7324 18.4709 28.7265L16.7461 28.0125C16.7317 28.0065 16.7237 27.9906 16.7274 27.9756L17.3485 25.4728C17.4388 25.1089 17.2888 24.7278 16.9748 24.5231C15.6883 23.6842 14.6091 22.6051 13.767 21.3158C13.6019 21.063 13.3224 20.9168 13.0298 20.9168C12.9592 20.9168 12.8878 20.9252 12.8172 20.9428L10.3139 21.5653C10.2983 21.5692 10.2831 21.5613 10.2771 21.5466L9.56252 19.8224C9.55643 19.8078 9.56194 19.7912 9.57553 19.783L11.785 18.4521C12.106 18.2586 12.2694 17.8833 12.1923 17.5165C11.8755 16.0097 11.8748 14.4834 12.1906 12.9805C12.2677 12.6136 12.104 12.2382 11.7828 12.0449L9.57342 10.7155C9.56006 10.7075 9.55444 10.6907 9.56042 10.6762Z" fill="#ffb515"/>
<path d="M20.9004 38.4664C17.5525 36.8724 13.5323 38.2997 11.9385 41.6475C11.2815 43.0275 11.1141 44.6049 11.4668 46.0894C11.5792 46.5626 12.0538 46.8548 12.5271 46.7424C13.0002 46.6299 13.2926 46.1553 13.1802 45.6821C12.9162 44.5712 13.0366 43.4379 13.5286 42.4044C14.7049 39.9335 17.6723 38.8802 20.1434 40.0564C21.3404 40.6263 22.2438 41.6281 22.6873 42.8776C23.1308 44.1269 23.0612 45.4742 22.4912 46.6712C21.3149 49.1421 18.3477 50.1953 15.8766 49.0192C15.5333 48.8557 15.21 48.6541 14.9157 48.4201C14.5351 48.1175 13.9813 48.1806 13.6785 48.5612C13.3758 48.9417 13.4389 49.4958 13.8196 49.7985C14.2184 50.1156 14.6557 50.3884 15.1196 50.6092C16.05 51.0521 17.0318 51.2617 17.9995 51.2617C20.514 51.2617 22.9305 49.8456 24.0816 47.4281C24.8536 45.8064 24.9479 43.981 24.3471 42.2884C23.7462 40.5958 22.5221 39.2383 20.9004 38.4664Z" fill="#ffb515"/>
<path d="M33.3668 40.077L32.7424 38.3181C32.4434 37.4753 31.5886 36.9874 30.711 37.1578L28.7776 37.5334C28.0411 36.3971 27.1393 35.3967 26.087 34.5484L26.6596 32.6647C26.9197 31.809 26.5223 30.9089 25.7148 30.5246L24.0293 29.7221C23.2221 29.3381 22.2727 29.597 21.7725 30.3383L20.6714 31.9704C19.3495 31.6884 18.0043 31.6192 16.6581 31.7639L15.7307 30.0261C15.3095 29.2372 14.3922 28.8818 13.5492 29.1807L11.7902 29.8051C10.9473 30.1043 10.4593 30.9587 10.63 31.8367L11.0056 33.7701C9.8693 34.5067 8.86899 35.4083 8.02067 36.4606L6.137 35.8881C5.28129 35.6277 4.38129 36.0254 3.9968 36.8328L3.19453 38.5182C2.81004 39.3258 3.06914 40.2749 3.81059 40.7751L5.44266 41.8762C5.16071 43.198 5.09145 44.5432 5.23606 45.8894L3.49852 46.8169C2.7095 47.2379 2.35395 48.1554 2.65313 48.9982L3.2775 50.7573C3.57668 51.6001 4.43086 52.0878 5.30895 51.9174L7.24243 51.5419C7.97907 52.6781 8.88071 53.6785 9.93305 54.5267L9.36047 56.4104C9.10032 57.2661 9.49758 58.1662 10.3051 58.5506L11.9906 59.3531C12.7982 59.7372 13.7474 59.4783 14.2474 58.7368L15.3485 57.1049C16.6704 57.3868 18.0156 57.4561 19.3618 57.3113L20.2893 59.049C20.6101 59.6503 21.219 59.9997 21.8636 59.9997C22.065 59.9997 22.2698 59.9655 22.4706 59.8944L24.2297 59.2701C25.0725 58.9708 25.5605 58.1165 25.3898 57.2386L25.0143 55.3051C26.1504 54.5686 27.1508 53.6668 27.9991 52.6146L29.8828 53.1873C30.7385 53.4475 31.6386 53.0501 32.023 52.2425L32.8253 50.5571C33.2098 49.7496 32.9507 48.8004 32.2092 48.3003L30.5772 47.1991C30.8591 45.8771 30.9284 44.5322 30.7838 43.1859L32.5213 42.2585C33.3106 41.8374 33.666 40.92 33.3668 40.077ZM31.6922 40.7049L29.4166 41.9195C29.0861 42.096 28.9034 42.4624 28.9614 42.8326C29.1998 44.3538 29.1213 45.8779 28.7281 47.3627C28.6321 47.7251 28.776 48.1085 29.0868 48.318L31.2244 49.7602C31.2373 49.7689 31.242 49.786 31.2352 49.8002L30.4329 51.4856C30.4261 51.4997 30.4097 51.5068 30.3949 51.5024L27.9279 50.7524C27.5693 50.6436 27.1809 50.7733 26.9602 51.0763C26.0557 52.3174 24.9222 53.3393 23.591 54.1134C23.2671 54.3017 23.0978 54.6746 23.1693 55.0426L23.6611 57.5747C23.664 57.5899 23.6552 57.6054 23.6406 57.6105L21.8813 58.2349C21.8665 58.24 21.8502 58.2337 21.8428 58.22L20.6282 55.9445C20.4735 55.6547 20.1729 55.4785 19.8516 55.4785C19.8063 55.4785 19.7606 55.4819 19.7149 55.4892C18.1936 55.7276 16.6693 55.6492 15.1849 55.2559C14.8225 55.1598 14.4391 55.3038 14.2295 55.6147L12.7874 57.7522C12.7874 57.7522 12.7874 57.7522 12.7873 57.7523C12.7786 57.7653 12.7614 57.7701 12.7474 57.7632L11.0619 56.9607C11.048 56.954 11.0407 56.9379 11.0453 56.923L11.7953 54.4558C11.9044 54.0972 11.7743 53.7088 11.4714 53.488C10.2301 52.5835 9.20825 51.45 8.43422 50.1188C8.2459 49.7949 7.87313 49.6257 7.50504 49.6971L4.97286 50.1889C4.95739 50.1915 4.94203 50.1829 4.93688 50.1684L4.3125 48.4093C4.30723 48.3947 4.31368 48.378 4.3275 48.3706L6.60305 47.1561C6.93364 46.9796 7.11633 46.6132 7.05832 46.243C6.81985 44.7217 6.89836 43.1975 7.29164 41.7129C7.38762 41.3505 7.2436 40.9671 6.93293 40.7574L4.79532 39.3153C4.78243 39.3067 4.77774 39.2895 4.78453 39.2755L5.5868 37.5901C5.59348 37.5762 5.6093 37.5687 5.62477 37.5733L8.0918 38.3233C8.4504 38.4323 8.83875 38.3025 9.05954 37.9994C9.96411 36.7583 11.0977 35.7364 12.4288 34.9623C12.7527 34.7738 12.922 34.4011 12.8504 34.0331L12.3586 31.501C12.3557 31.4858 12.3645 31.4703 12.3791 31.4651L14.1381 30.8408C14.1531 30.8356 14.1694 30.8417 14.1768 30.8557L15.3913 33.1312C15.5679 33.4619 15.9341 33.6453 16.3045 33.5865C17.8259 33.3483 19.35 33.4265 20.8345 33.8198C21.197 33.9157 21.5804 33.7719 21.79 33.4611L23.2321 31.3236C23.241 31.3104 23.258 31.306 23.2722 31.3126L24.9577 32.1151C24.9716 32.1218 24.9788 32.1381 24.9743 32.1528L24.2243 34.6199C24.1153 34.9785 24.2452 35.3668 24.5482 35.5877C25.7895 36.4923 26.8113 37.6258 27.5854 38.957C27.7738 39.2809 28.1463 39.4501 28.5145 39.3787L31.0466 38.8869C31.0625 38.8844 31.0773 38.8925 31.0826 38.9074L31.707 40.6664C31.7123 40.681 31.7059 40.6976 31.6922 40.7049Z" fill="#ffb515"/>
</g>
<defs>
<clipPath id="clip0_1014:155">
<rect width="60" height="60" fill="white"/>
</clipPath>
</defs>
</svg>
