<svg width="218" height="89" viewBox="0 0 218 89" fill="none" xmlns="http://www.w3.org/2000/svg">
<path fill-rule="evenodd" clip-rule="evenodd" d="M157.58 58.0592V73.883H151.131V58.0592H144.98V52.4761H163.611V58.0592H157.58ZM78.9922 65.4335V68.2999H90.8747V73.883H72.5425V52.4761H90.5765V58.0592H78.9922V60.7167H88.9645V65.4335H78.9922ZM168.291 67.6097V73.8204H162.23V67.6097H168.291ZM106.559 62.8361L114.321 73.883H106.529L102.737 67.4637L98.8262 73.883H91.0933L98.856 62.8361L91.6903 52.4761H99.3033L102.737 58.2976L106.26 52.4761H113.844L106.559 62.8361ZM122.182 52.4761V73.883H115.764V52.4761H122.182ZM143.299 58.7463H137C136.861 58.1088 136.577 57.6464 136.149 57.3582C135.722 57.069 135.099 56.9247 134.283 56.9247C133.627 56.9245 133.089 57.0492 132.671 57.2981C132.253 57.5461 132.044 57.8503 132.044 58.2086C132.044 58.507 132.108 58.7264 132.238 58.8651C132.367 59.0048 132.591 59.129 132.909 59.2387C133.228 59.3475 134.054 59.5921 135.387 59.9703C137.319 60.4476 138.856 60.9054 140 61.3434C141.145 61.7813 142.135 62.4631 142.971 63.3883C143.807 64.3141 144.225 65.5633 144.225 67.1354C144.225 68.1905 143.972 69.1905 143.464 70.1359C142.956 71.0813 142.244 71.8925 141.329 72.5692C140.453 73.1863 139.478 73.6486 138.403 73.9579C137.329 74.2657 136.055 74.4205 134.581 74.4205C132.949 74.4205 131.397 74.1415 129.924 73.5842C128.451 73.027 127.257 72.1916 126.341 71.0767C125.426 69.9619 124.968 68.5984 124.968 66.986H131.447C131.626 67.8619 131.979 68.4938 132.506 68.8819C133.034 69.2702 133.765 69.4644 134.701 69.4644C136.691 69.4644 137.687 68.8969 137.687 67.7622C137.687 67.1451 137.189 66.6876 136.194 66.3893C134.92 66.0106 133.666 65.6379 132.432 65.2697C131.198 64.9012 130.093 64.4734 129.118 63.985C128.142 63.498 127.316 62.8007 126.639 61.8956C125.963 60.9899 125.625 59.9006 125.625 58.6267C125.625 56.5168 126.376 54.8847 127.879 53.7304C129.382 52.5758 131.516 51.9984 134.283 51.9984C136.99 51.9976 139.115 52.501 140.657 53.5062C142.2 54.5116 143.08 56.2575 143.299 58.7463V58.7463ZM172.739 52.4301H185.116C187.177 52.4301 188.761 52.9426 189.862 53.9637C190.967 54.9847 191.52 56.2495 191.52 57.7539C191.52 59.019 191.127 60.1044 190.339 61.0106C189.812 61.6135 189.045 62.0917 188.034 62.4404C189.568 62.8086 190.698 63.4461 191.425 64.3427C192.148 65.2441 192.511 66.3749 192.511 67.7344C192.511 68.845 192.252 69.8411 191.739 70.7275C191.221 71.6139 190.519 72.3112 189.622 72.8294C189.07 73.148 188.233 73.3819 187.113 73.5264C185.623 73.7206 184.637 73.8204 184.149 73.8204H172.739V52.4301ZM179.408 60.8218H182.282C183.312 60.8218 184.03 60.6427 184.438 60.2889C184.841 59.9303 185.041 59.4173 185.041 58.7503C185.041 58.1275 184.841 57.6394 184.438 57.2907C184.03 56.9372 183.327 56.7626 182.326 56.7626H179.408V60.8218ZM179.408 69.2237H182.779C183.92 69.2237 184.722 69.0244 185.185 68.6208C185.653 68.2174 185.887 67.6743 185.887 66.9926C185.887 66.3601 185.658 65.8519 185.195 65.4687C184.731 65.0848 183.925 64.891 182.765 64.891H179.408V69.2237ZM193.811 52.4301H201.152L205.47 59.6514L209.788 52.4301H217.084L208.766 64.8609V73.8204H202.143V64.8609L193.811 52.4301Z" fill="#003C7F"/>
<path fill-rule="evenodd" clip-rule="evenodd" d="M47.6648 7.3969C51.2315 7.7891 54.6502 8.6868 57.8453 10.0172L61.1278 4.3284L68.9033 8.8242L65.6558 14.4387C68.4864 16.525 71.0139 19.0005 73.1591 21.7853L78.8635 18.4896L83.3498 26.2704L77.7447 29.501C79.1448 32.6714 80.1184 36.069 80.586 39.6229L87.1429 39.6219L87.1379 48.0287H71.6604C71.8051 46.8737 71.881 45.6971 71.881 44.5045C71.881 28.9128 59.1636 16.1958 43.5718 16.1958C36.7312 16.1958 30.4453 18.6429 25.5421 22.7077L17.6285 9.2975L17.6067 9.2979L17.5568 9.21249L25.3376 4.7262L28.5686 10.3317C31.7394 8.9329 35.1374 7.9609 38.6905 7.4933L38.6885 0.933105L47.6694 0.938095L47.6648 7.3969ZM68.4505 77.8312L69.5862 79.7966L61.805 84.2825L58.5777 78.6828C55.406 80.0828 52.008 81.0565 48.4529 81.5245L48.4539 88.0756L39.4727 88.0706L39.4777 81.6205C35.9098 81.2283 32.4899 80.3306 29.2931 78.999L26.0147 84.68L18.2393 80.1846L21.483 74.5758C18.652 72.4883 16.1229 70.0124 13.9794 67.2263L8.279 70.5196L3.7931 62.7384L9.3941 59.5103C7.9957 56.3386 7.0225 52.9414 6.5557 49.3863L0 49.3873L0.005 40.4061L6.4604 40.4111L15.5683 40.4635C15.3179 41.8079 15.2623 43.0982 15.2623 44.5048C15.2623 60.0974 27.9793 72.8144 43.5714 72.8144C50.4256 72.8144 56.7231 70.3549 61.6308 66.2761L68.4505 77.8312Z" fill="#E30016"/>
<path fill-rule="evenodd" clip-rule="evenodd" d="M57.7829 40.3367C56.7866 36.6541 55.0558 33.8017 52.591 31.7946C50.1271 29.7723 47.1917 28.762 43.7578 28.762C40.241 28.762 37.1952 29.8008 34.6058 31.8635C33.8776 32.4511 33.2128 33.099 32.6107 33.8062L28.428 26.7182C30.2433 25.0452 32.2309 23.7342 34.3844 22.7812C37.1671 21.5486 40.2142 20.9391 43.5087 20.9391C47.4276 20.9391 51.0681 21.8529 54.4467 23.6806C57.8114 25.5083 60.5805 28.0564 62.7822 31.3237C64.0697 33.3588 65.0383 35.5741 65.6615 37.9969C66.2846 40.42 66.5889 43.19 66.5889 46.2903V47.5505H29.0259C29.7047 51.2747 31.3942 54.3069 34.0801 56.6196C36.7663 58.9314 39.9643 60.0807 43.6749 60.0807C46.3191 60.0807 48.7283 59.4436 50.9159 58.1701C52.2673 57.3874 53.4471 56.3948 54.4595 55.1977L58.7038 62.3888C58.0196 63.0206 57.3025 63.6037 56.5511 64.1373C52.855 66.7547 48.5617 68.0693 43.6749 68.0693C40.3656 68.0693 37.3614 67.4879 34.6199 66.325C31.8924 65.1616 29.4276 63.4173 27.1987 61.0914C25.1219 58.9033 23.488 56.3561 22.3111 53.4484C21.1342 50.5411 20.5527 47.5785 20.5527 44.5459C20.5531 43.1054 20.6669 41.7091 20.8921 40.3569L36.4764 40.3561L36.4653 40.3367H57.7829Z" fill="#003C7F"/>
</svg>
