<?xml version="1.0" encoding="utf-8"?>
<!-- Generator: Adobe Illustrator 15.0.0, SVG Export Plug-In  -->
<!DOCTYPE svg PUBLIC "-//W3C//DTD SVG 1.1//EN" "http://www.w3.org/Graphics/SVG/1.1/DTD/svg11.dtd" [
	<!ENTITY ns_flows "http://ns.adobe.com/Flows/1.0/">
]>
<svg version="1.1"
	 xmlns="http://www.w3.org/2000/svg" xmlns:xlink="http://www.w3.org/1999/xlink" xmlns:a="http://ns.adobe.com/AdobeSVGViewerExtensions/3.0/"
	 x="0px" y="0px" width="433px" height="138px" viewBox="-0.742 0 433 138" enable-background="new -0.742 0 433 138"
	 xml:space="preserve">
<defs>
</defs>
<path fill-rule="evenodd" clip-rule="evenodd" fill="#ED1C24" d="M108.054,121.391l1.793,3.102l-12.284,7.082l-5.095-8.84
	c-5.006,2.21-10.37,3.747-15.982,4.486l0.002,10.341l-14.178-0.008l0.008-10.183c-5.632-0.619-11.031-2.036-16.077-4.138
	l-5.175,8.968l-12.274-7.097l5.12-8.854c-4.469-3.295-8.461-7.204-11.845-11.602l-8.999,5.198L5.987,97.564l8.842-5.096
	c-2.208-5.007-3.744-10.369-4.48-15.981L0,76.489l0.008-14.178l10.19,0.008l14.378,0.082c-0.396,2.122-0.483,4.159-0.483,6.38
	c0,24.614,20.075,44.688,44.688,44.688c10.82,0,20.761-3.883,28.508-10.321L108.054,121.391z M75.242,10.204
	c5.63,0.619,11.027,2.036,16.071,4.137l5.182-8.98l12.274,7.097l-5.126,8.863c4.468,3.293,8.458,7.201,11.844,11.597l9.005-5.202
	l7.082,12.282l-8.848,5.101c2.21,5.004,3.747,10.367,4.485,15.978l10.351-0.002l-0.008,13.271h-24.433
	c0.229-1.824,0.348-3.682,0.348-5.563c0-24.613-20.075-44.688-44.688-44.688c-10.798,0-20.721,3.862-28.461,10.279L27.827,13.204
	h-0.035l-0.079-0.135l12.282-7.082l5.101,8.85c5.005-2.209,10.369-3.743,15.978-4.481L61.072,0L75.25,0.009L75.242,10.204z"/>
<path fill-rule="evenodd" clip-rule="evenodd" fill="#1F448A" d="M91.215,62.202c-1.573-5.813-4.305-10.316-8.196-13.484
	c-3.89-3.192-8.523-4.787-13.944-4.787c-5.552,0-10.36,1.64-14.447,4.896c-1.15,0.928-2.199,1.951-3.149,3.067l-6.603-11.189
	c2.866-2.641,6.003-4.71,9.403-6.215c4.393-1.945,9.203-2.907,14.403-2.907c6.187,0,11.933,1.442,17.267,4.327
	c5.311,2.885,9.683,6.907,13.158,12.065c2.032,3.212,3.562,6.709,4.545,10.534c0.983,3.825,1.464,8.197,1.464,13.092v1.989H45.819
	c1.072,5.879,3.739,10.666,7.979,14.316c4.24,3.649,9.289,5.463,15.146,5.463c4.174,0,7.978-1.005,11.431-3.016
	c2.133-1.235,3.996-2.803,5.594-4.692l6.7,11.352c-1.08,0.998-2.212,1.918-3.398,2.761c-5.834,4.132-12.612,6.207-20.326,6.207
	c-5.224,0-9.966-0.918-14.294-2.754c-4.305-1.836-8.196-4.59-11.715-8.262c-3.278-3.454-5.857-7.475-7.715-12.064
	c-1.858-4.59-2.776-9.267-2.776-14.054c0-2.273,0.181-4.479,0.536-6.612l24.601-0.002l-0.018-0.03H91.215z"/>
<path fill="#1E4589" d="M124.802,103.133v4.696h19.471v9.148h-30.038V81.901h29.548v9.148h-18.981v4.354h16.34v7.729H124.802z"/>
<path fill="#1E4589" d="M168.341,98.877l12.719,18.101h-12.768l-6.213-10.518l-6.409,10.518H143l12.72-18.101l-11.741-16.976h12.475
	l5.626,9.54l5.772-9.54h12.426L168.341,98.877z"/>
<path fill="#1E4589" d="M192.313,81.901v35.077h-10.518V81.901H192.313z"/>
<path fill="#1E4589" d="M225.285,92.175h-10.322c-0.229-1.043-0.693-1.802-1.394-2.275c-0.702-0.472-1.721-0.709-3.058-0.709
	c-1.076,0-1.957,0.204-2.643,0.611c-0.685,0.408-1.027,0.905-1.027,1.492c0,0.489,0.106,0.848,0.318,1.076
	c0.212,0.229,0.579,0.433,1.101,0.611c0.521,0.18,1.875,0.58,4.061,1.199c3.163,0.783,5.683,1.533,7.559,2.25
	c1.875,0.718,3.498,1.834,4.867,3.351c1.37,1.517,2.055,3.563,2.055,6.14c0,1.729-0.415,3.368-1.247,4.917
	c-0.832,1.549-1.998,2.879-3.498,3.987c-1.436,1.011-3.033,1.77-4.794,2.274c-1.762,0.505-3.849,0.758-6.262,0.758
	c-2.675,0-5.219-0.457-7.632-1.37c-2.414-0.913-4.371-2.282-5.871-4.109c-1.5-1.826-2.25-4.061-2.25-6.702h10.616
	c0.293,1.436,0.872,2.471,1.736,3.106c0.863,0.636,2.063,0.954,3.596,0.954c3.261,0,4.893-0.93,4.893-2.789
	c0-1.011-0.816-1.761-2.446-2.25c-2.088-0.619-4.143-1.23-6.164-1.834c-2.022-0.603-3.833-1.304-5.431-2.104
	c-1.599-0.799-2.952-1.94-4.061-3.425c-1.109-1.483-1.663-3.269-1.663-5.357c0-3.457,1.23-6.131,3.693-8.023
	c2.462-1.891,5.96-2.837,10.494-2.837c4.435,0,7.917,0.824,10.444,2.471C223.483,85.236,224.927,88.098,225.285,92.175z"/>
<path fill="#1E4589" d="M247.055,91.05v25.928h-10.566V91.05H226.41v-9.148h30.527v9.148H247.055z"/>
<path fill="#1E4589" d="M267.993,106.802v10.176h-9.931v-10.176H267.993z"/>
<path fill="#1E4589" d="M282.669,106.264v10.714h-10.566V81.901h16.633c2.381,0,4.199,0.155,5.455,0.465
	c1.255,0.31,2.486,0.873,3.693,1.688c1.5,1.012,2.714,2.446,3.644,4.305c0.93,1.859,1.395,3.816,1.395,5.871
	c0,3.751-1.166,6.695-3.498,8.831c-2.332,2.136-5.569,3.204-9.71,3.204H282.669z M282.669,90.512v7.583h5.284
	c1.435,0,2.52-0.342,3.253-1.027c0.733-0.685,1.101-1.646,1.101-2.886c0-1.272-0.342-2.202-1.027-2.789
	c-0.685-0.587-1.761-0.88-3.229-0.88H282.669z"/>
<path fill="#1E4589" d="M313.684,111.939l-1.662,5.039h-10.52l12.867-35.077h10.615l12.818,35.077h-10.813l-1.564-5.039H313.684z
	 M316.131,104.699h6.896l-3.326-10.371L316.131,104.699z"/>
<path fill="#1E4589" d="M349.102,104.895v12.083h-10.566V81.901h16.83c4.891,0,8.576,0.889,11.055,2.666
	c2.479,1.778,3.719,4.363,3.719,7.754c0,4.142-1.941,7.013-5.822,8.61c1.826,0.685,3.09,1.623,3.791,2.813
	c0.701,1.191,1.109,2.65,1.225,4.378c0.113,1.729,0.227,3.376,0.342,4.941c0.113,1.565,0.447,2.87,1.004,3.914h-10.861
	c-0.262-0.88-0.465-2.52-0.611-4.917c-0.146-2.397-0.611-4.19-1.395-5.381c-0.783-1.19-2.268-1.786-4.451-1.786H349.102z
	 M349.102,90.512v6.8h5.92c2.936,0,4.404-1.19,4.404-3.571c0-1.239-0.328-2.086-0.979-2.544c-0.654-0.456-1.795-0.685-3.426-0.685
	H349.102z"/>
<path fill="#1E4589" d="M391.127,91.05v25.928h-10.566V91.05h-10.078v-9.148h30.527v9.148H391.127z"/>
<path fill="#1E4589" d="M430.752,92.175H420.43c-0.229-1.043-0.693-1.802-1.395-2.275c-0.701-0.472-1.721-0.709-3.057-0.709
	c-1.076,0-1.957,0.204-2.643,0.611c-0.686,0.408-1.027,0.905-1.027,1.492c0,0.489,0.105,0.848,0.318,1.076
	c0.211,0.229,0.578,0.433,1.1,0.611c0.521,0.18,1.875,0.58,4.061,1.199c3.164,0.783,5.684,1.533,7.559,2.25
	c1.875,0.718,3.498,1.834,4.867,3.351c1.371,1.517,2.055,3.563,2.055,6.14c0,1.729-0.414,3.368-1.246,4.917
	c-0.832,1.549-1.998,2.879-3.498,3.987c-1.436,1.011-3.033,1.77-4.795,2.274c-1.762,0.505-3.848,0.758-6.262,0.758
	c-2.674,0-5.219-0.457-7.631-1.37c-2.414-0.913-4.371-2.282-5.871-4.109c-1.5-1.826-2.25-4.061-2.25-6.702h10.615
	c0.293,1.436,0.873,2.471,1.736,3.106s2.063,0.954,3.596,0.954c3.262,0,4.893-0.93,4.893-2.789c0-1.011-0.816-1.761-2.445-2.25
	c-2.088-0.619-4.143-1.23-6.164-1.834c-2.023-0.603-3.834-1.304-5.432-2.104c-1.598-0.799-2.951-1.94-4.061-3.425
	c-1.109-1.483-1.662-3.269-1.662-5.357c0-3.457,1.23-6.131,3.693-8.023c2.461-1.891,5.959-2.837,10.494-2.837
	c4.434,0,7.916,0.824,10.443,2.471C428.95,85.236,430.393,88.098,430.752,92.175z"/>
<rect x="151.291" y="61.073" fill-rule="evenodd" clip-rule="evenodd" fill="#ED1C24" width="279.762" height="13.271"/>
</svg>
