<svg width="60" height="60" viewBox="0 0 60 60" fill="none" xmlns="http://www.w3.org/2000/svg">
<path d="M57.1875 33.75C56.9389 33.75 56.7004 33.8488 56.5246 34.0246C56.3488 34.2004 56.25 34.4389 56.25 34.6875V36.5625C56.25 37.3084 55.9537 38.0238 55.4262 38.5512C54.8988 39.0787 54.1834 39.375 53.4375 39.375H50.625V28.125H53.4375C54.1834 28.125 54.8988 28.4213 55.4262 28.9488C55.9537 29.4762 56.25 30.1916 56.25 30.9375C56.25 31.1861 56.3488 31.4246 56.5246 31.6004C56.7004 31.7762 56.9389 31.875 57.1875 31.875C57.4361 31.875 57.6746 31.7762 57.8504 31.6004C58.0262 31.4246 58.125 31.1861 58.125 30.9375C58.1236 29.8573 57.7499 28.8106 57.0668 27.9738C56.3837 27.137 55.4331 26.5613 54.375 26.3438V26.25C54.3807 20.1771 52.1136 14.3218 48.0197 9.83625C47.8513 9.65653 47.6189 9.55029 47.3729 9.5405C47.1268 9.5307 46.8867 9.61813 46.7046 9.7839C46.5224 9.94967 46.4128 10.1804 46.3994 10.4264C46.3861 10.6723 46.47 10.9136 46.6331 11.0981C50.412 15.2391 52.5048 20.644 52.5 26.25H50.625C50.625 20.7799 48.452 15.5339 44.5841 11.6659C40.7161 7.79799 35.4701 5.625 30 5.625C24.5299 5.625 19.2839 7.79799 15.4159 11.6659C11.548 15.5339 9.375 20.7799 9.375 26.25H7.5C7.50695 20.2848 9.87971 14.5658 14.0978 10.3478C18.3158 6.12971 24.0348 3.75695 30 3.75C35.0747 3.73218 40.0033 5.44888 43.9688 8.61563C44.0652 8.69214 44.1758 8.74891 44.2942 8.78269C44.4126 8.81646 44.5365 8.82659 44.6588 8.81249C44.7811 8.79838 44.8994 8.76033 45.0071 8.70049C45.1147 8.64066 45.2094 8.56021 45.2859 8.46375C45.3625 8.36729 45.4192 8.2567 45.453 8.13831C45.4868 8.01991 45.4969 7.89601 45.4828 7.7737C45.4687 7.65139 45.4306 7.53305 45.3708 7.42545C45.311 7.31784 45.2305 7.22308 45.1341 7.14656C40.8379 3.71538 35.4982 1.85542 30 1.875C23.5376 1.8822 17.3419 4.45258 12.7722 9.02222C8.20258 13.5919 5.6322 19.7876 5.625 26.25V26.3438C4.56695 26.5613 3.61626 27.137 2.93317 27.9738C2.25008 28.8106 1.87636 29.8573 1.875 30.9375V36.5625C1.87649 37.8052 2.37083 38.9967 3.24958 39.8754C4.12834 40.7542 5.31975 41.2485 6.5625 41.25H9.375C9.375 42.2446 9.77009 43.1984 10.4733 43.9017C11.1766 44.6049 12.1304 45 13.125 45H15.9375C16.1861 45 16.4246 44.9012 16.6004 44.7254C16.7762 44.5496 16.875 44.3111 16.875 44.0625V40.3125C16.875 40.0639 16.7762 39.8254 16.6004 39.6496C16.4246 39.4738 16.1861 39.375 15.9375 39.375C15.6889 39.375 15.4504 39.4738 15.2746 39.6496C15.0988 39.8254 15 40.0639 15 40.3125V43.125H13.125C12.6277 43.125 12.1508 42.9275 11.7992 42.5758C11.4475 42.2242 11.25 41.7473 11.25 41.25V36.5625C11.25 36.3139 11.1512 36.0754 10.9754 35.8996C10.7996 35.7238 10.5611 35.625 10.3125 35.625C10.0639 35.625 9.8254 35.7238 9.64959 35.8996C9.47377 36.0754 9.375 36.3139 9.375 36.5625V39.375H6.5625C5.81658 39.375 5.10121 39.0787 4.57376 38.5512C4.04632 38.0238 3.75 37.3084 3.75 36.5625V30.9375C3.75 30.1916 4.04632 29.4762 4.57376 28.9488C5.10121 28.4213 5.81658 28.125 6.5625 28.125H9.375V32.8125C9.375 33.0611 9.47377 33.2996 9.64959 33.4754C9.8254 33.6512 10.0639 33.75 10.3125 33.75C10.5611 33.75 10.7996 33.6512 10.9754 33.4754C11.1512 33.2996 11.25 33.0611 11.25 32.8125V26.25C11.25 25.7527 11.4475 25.2758 11.7992 24.9242C12.1508 24.5725 12.6277 24.375 13.125 24.375H15V36.5625C15 36.8111 15.0988 37.0496 15.2746 37.2254C15.4504 37.4012 15.6889 37.5 15.9375 37.5C16.1861 37.5 16.4246 37.4012 16.6004 37.2254C16.7762 37.0496 16.875 36.8111 16.875 36.5625V23.4375C16.875 23.1889 16.7762 22.9504 16.6004 22.7746C16.4246 22.5988 16.1861 22.5 15.9375 22.5H13.125C12.5896 22.5019 12.061 22.6196 11.5753 22.845C12.3681 18.5369 14.6455 14.6428 18.0116 11.8397C21.3776 9.03651 25.6196 7.50151 30 7.50151C34.3804 7.50151 38.6224 9.03651 41.9885 11.8397C45.3545 14.6428 47.6319 18.5369 48.4247 22.845C47.939 22.6196 47.4104 22.5019 46.875 22.5H44.0625C43.8139 22.5 43.5754 22.5988 43.3996 22.7746C43.2238 22.9504 43.125 23.1889 43.125 23.4375V44.0625C43.125 44.3111 43.2238 44.5496 43.3996 44.7254C43.5754 44.9012 43.8139 45 44.0625 45H46.875C47.8696 45 48.8234 44.6049 49.5266 43.9017C50.2299 43.1984 50.625 42.2446 50.625 41.25H51.5625V45C51.56 47.237 50.6703 49.3817 49.0885 50.9635C47.5067 52.5453 45.362 53.435 43.125 53.4375H41.1169C40.9096 52.6349 40.4423 51.9235 39.7879 51.4147C39.1335 50.9058 38.329 50.6281 37.5 50.625H33.75C32.7554 50.625 31.8016 51.0201 31.0984 51.7234C30.3951 52.4266 30 53.3804 30 54.375C30 55.3696 30.3951 56.3234 31.0984 57.0267C31.8016 57.7299 32.7554 58.125 33.75 58.125H37.5C38.329 58.1219 39.1335 57.8442 39.7879 57.3353C40.4423 56.8265 40.9096 56.1151 41.1169 55.3125H43.125C45.8591 55.3093 48.4802 54.2218 50.4135 52.2885C52.3467 50.3552 53.4343 47.7341 53.4375 45V41.25C54.6802 41.2485 55.8717 40.7542 56.7504 39.8754C57.6292 38.9967 58.1235 37.8052 58.125 36.5625V34.6875C58.125 34.4389 58.0262 34.2004 57.8504 34.0246C57.6746 33.8488 57.4361 33.75 57.1875 33.75ZM48.75 41.25C48.75 41.7473 48.5525 42.2242 48.2008 42.5758C47.8492 42.9275 47.3723 43.125 46.875 43.125H45V24.375H46.875C47.3723 24.375 47.8492 24.5725 48.2008 24.9242C48.5525 25.2758 48.75 25.7527 48.75 26.25V41.25ZM37.5 56.25H33.75C33.2527 56.25 32.7758 56.0525 32.4242 55.7008C32.0725 55.3492 31.875 54.8723 31.875 54.375C31.875 53.8777 32.0725 53.4008 32.4242 53.0492C32.7758 52.6975 33.2527 52.5 33.75 52.5H37.5C37.9973 52.5 38.4742 52.6975 38.8258 53.0492C39.1775 53.4008 39.375 53.8777 39.375 54.375C39.375 54.8723 39.1775 55.3492 38.8258 55.7008C38.4742 56.0525 37.9973 56.25 37.5 56.25Z" fill="#ffb515"/>
<path d="M41.25 33.75C41.2533 31.4726 40.5612 29.2484 39.2662 27.375C39.1975 27.2711 39.1088 27.1818 39.0052 27.1126C38.9016 27.0433 38.7852 26.9954 38.6629 26.9716C38.5406 26.9479 38.4148 26.9487 38.2928 26.9742C38.1708 26.9996 38.0551 27.0491 37.9525 27.1198C37.8498 27.1904 37.7623 27.2809 37.695 27.3857C37.6278 27.4906 37.5821 27.6079 37.5606 27.7306C37.5392 27.8534 37.5424 27.9792 37.5702 28.1006C37.5979 28.2221 37.6496 28.3369 37.7222 28.4381C39.0497 30.3665 39.6086 32.7214 39.2892 35.0407C38.9699 37.36 37.7953 39.4762 35.9961 40.9741C34.1968 42.472 31.9027 43.2434 29.564 43.1369C27.2252 43.0305 25.0107 42.0539 23.3549 40.3988C21.6992 38.7436 20.7217 36.5295 20.6144 34.1908C20.507 31.8521 21.2775 29.5577 22.7747 27.7578C24.2719 25.958 26.3876 24.7826 28.7068 24.4624C31.0259 24.1421 33.3811 24.7001 35.31 26.0269C35.4113 26.0978 35.5256 26.148 35.6463 26.1746C35.7671 26.2011 35.8919 26.2036 36.0137 26.1817C36.1354 26.1598 36.2515 26.1141 36.3555 26.0471C36.4594 25.9801 36.5491 25.8933 36.6193 25.7915C36.6896 25.6897 36.739 25.575 36.7647 25.4541C36.7905 25.3332 36.792 25.2083 36.7693 25.0868C36.7466 24.9652 36.7001 24.8494 36.6324 24.7459C36.5647 24.6424 36.4772 24.5533 36.375 24.4838C34.3031 23.0588 31.8135 22.3691 29.3036 22.5247C26.7938 22.6804 24.4085 23.6724 22.5285 25.3424C20.6486 27.0125 19.3823 29.2642 18.9319 31.7382C18.4815 34.2122 18.873 36.7657 20.0438 38.9911C21.2146 41.2166 23.0972 42.9856 25.3912 44.0158C27.6851 45.046 30.258 45.2779 32.6992 44.6745C35.1404 44.0712 37.3091 42.6674 38.859 40.6872C40.4089 38.707 41.2507 36.2646 41.25 33.75Z" fill="#ffb515"/>
<path d="M26.6836 30.1399C27.2359 30.1399 27.6836 30.5876 27.6836 31.1399V36.1499C27.6836 36.6967 27.2404 37.1399 26.6936 37.1399C26.1469 37.1399 25.7036 36.6967 25.7036 36.1499V32.3199C25.7036 31.9609 25.4126 31.6699 25.0536 31.6699C24.6947 31.6699 24.4036 31.3789 24.4036 31.0199V30.9049C24.4036 30.4824 24.7461 30.1399 25.1686 30.1399H26.6836Z" fill="#ffb515"/>
<path d="M32.5864 37.2799C31.853 37.2799 31.193 37.1266 30.6064 36.8199C30.0264 36.5066 29.5697 36.0733 29.2364 35.5199C28.903 34.9666 28.7364 34.3399 28.7364 33.6399C28.7364 32.9399 28.903 32.3133 29.2364 31.7599C29.5697 31.2066 30.0264 30.7766 30.6064 30.4699C31.193 30.1566 31.853 29.9999 32.5864 29.9999C33.2264 29.9999 33.803 30.1133 34.3164 30.3399C34.5741 30.4537 34.8101 30.5928 35.0241 30.757C35.383 31.0324 35.3351 31.5563 34.9997 31.8598C34.6381 32.187 34.0857 32.1195 33.6587 31.8841C33.3634 31.7213 33.0393 31.6399 32.6864 31.6399C32.3064 31.6399 31.9664 31.7233 31.6664 31.8899C31.373 32.0566 31.143 32.2933 30.9764 32.5999C30.8164 32.8999 30.7364 33.2466 30.7364 33.6399C30.7364 34.0333 30.8164 34.3833 30.9764 34.6899C31.143 34.9899 31.373 35.2233 31.6664 35.3899C31.9664 35.5566 32.3064 35.6399 32.6864 35.6399C33.0393 35.6399 33.3634 35.5585 33.6587 35.3957C34.0857 35.1603 34.6381 35.0929 34.9997 35.42C35.3351 35.7235 35.383 36.2475 35.0241 36.5228C34.8101 36.6871 34.5741 36.8261 34.3164 36.9399C33.803 37.1666 33.2264 37.2799 32.5864 37.2799Z" fill="#ffb515"/>
</svg>
