<svg width="60" height="60" viewBox="0 0 60 60" fill="none" xmlns="http://www.w3.org/2000/svg">
<path d="M54.4336 0H52.7176C52.2321 0 51.8387 0.393516 51.8387 0.878906C51.8387 1.3643 52.2321 1.75781 52.7176 1.75781H54.4336C56.5337 1.75781 58.2422 3.46641 58.2422 5.56641V13.6523H1.75781V5.56641C1.75781 3.46641 3.46629 1.75781 5.56641 1.75781H48.6161C49.1016 1.75781 49.495 1.3643 49.495 0.878906C49.495 0.393516 49.1016 0 48.6161 0H5.56641C2.49715 0 0 2.49715 0 5.56641V42.1121C0 42.5975 0.393398 42.9911 0.878906 42.9911C1.36441 42.9911 1.75781 42.5975 1.75781 42.1121V15.4102H58.2422V54.4336C58.2422 56.5336 56.5337 58.2422 54.4336 58.2422H5.56641C3.46629 58.2422 1.75781 56.5336 1.75781 54.4336V46.2137C1.75781 45.7283 1.36441 45.3348 0.878906 45.3348C0.393398 45.3348 0 45.7283 0 46.2137V54.4336C0 57.5029 2.49715 60 5.56641 60H54.4336C57.5029 60 60 57.5029 60 54.4336C60 52.8909 60 6.66598 60 5.56641C60 2.49715 57.5029 0 54.4336 0Z" fill="#ffb515"/>
<path d="M7.73438 17.373C6.28055 17.373 5.09766 18.5558 5.09766 20.0098V32.21C4.12336 32.2413 3.33984 33.0417 3.33984 34.0235V36.836C3.33984 37.8178 4.12336 38.6182 5.09766 38.6495V53.4082C5.09766 54.8621 6.28055 56.0449 7.73438 56.0449C9.1882 56.0449 10.3711 54.8621 10.3711 53.4082V38.6494C11.3454 38.6181 12.1289 37.8177 12.1289 36.8359V34.0234C12.1289 33.0416 11.3454 32.2412 10.3711 32.2099V20.0098C10.3711 18.5558 9.1882 17.373 7.73438 17.373ZM6.85547 20.0098C6.85547 19.5251 7.24969 19.1309 7.73438 19.1309C8.21906 19.1309 8.61328 19.5251 8.61328 20.0098V32.207H6.85547V20.0098ZM8.61328 53.4082C8.61328 53.8929 8.21906 54.2871 7.73438 54.2871C7.24969 54.2871 6.85547 53.8929 6.85547 53.4082V38.6523H8.61328V53.4082ZM10.3711 36.8359C10.3711 36.8682 10.3447 36.8945 10.3125 36.8945C8.08148 36.8945 7.50727 36.8945 5.15625 36.8945C5.12402 36.8945 5.09766 36.8682 5.09766 36.8359C5.09766 33.8955 5.06039 33.9648 5.15625 33.9648H10.3125C10.3447 33.9648 10.3711 33.9911 10.3711 34.0234V36.8359Z" fill="#ffb515"/>
<path d="M18.786 17.373C17.3321 17.373 16.1492 18.5558 16.1492 20.0098V22.2444C15.1749 22.2757 14.3914 23.0761 14.3914 24.0579V26.8704C14.3914 27.8522 15.1749 28.6526 16.1492 28.6839V53.4082C16.1492 54.8621 17.3321 56.0449 18.786 56.0449C20.2398 56.0449 21.4227 54.8621 21.4227 53.4082V28.6839C22.397 28.6526 23.1805 27.8522 23.1805 26.8704V24.0579C23.1805 23.0761 22.397 22.2757 21.4227 22.2444V20.0098C21.4227 18.5558 20.2398 17.373 18.786 17.373ZM17.907 20.0098C17.907 19.5251 18.3013 19.1309 18.786 19.1309C19.2706 19.1309 19.6649 19.5251 19.6649 20.0098V22.2415H17.907V20.0098ZM19.6649 53.4082C19.6649 53.8929 19.2706 54.2871 18.786 54.2871C18.3013 54.2871 17.907 53.8929 17.907 53.4082V28.6868H19.6649V53.4082ZM21.4227 26.8704C21.4227 26.9679 21.6158 26.929 16.2078 26.929C16.1756 26.929 16.1492 26.9027 16.1492 26.8704V24.0579C16.1492 24.0255 16.1756 23.9993 16.2078 23.9993H21.3641C21.3963 23.9993 21.4227 24.0255 21.4227 24.0579V26.8704Z" fill="#ffb515"/>
<path d="M30.1625 17.373C28.7087 17.373 27.5258 18.5558 27.5258 20.0098V38.8538C26.5515 38.885 25.768 39.6854 25.768 40.6672V43.4797C25.768 44.4615 26.5515 45.2619 27.5258 45.2932V53.4083C27.5258 54.8623 28.7087 56.045 30.1625 56.045C31.6164 56.045 32.7993 54.8623 32.7993 53.4083V45.2932C33.7736 45.2619 34.5571 44.4615 34.5571 43.4797V40.6672C34.5571 39.6854 33.7736 38.885 32.7993 38.8538V20.0098C32.7993 18.5558 31.6164 17.373 30.1625 17.373ZM29.2836 20.0098C29.2836 19.5251 29.6778 19.1309 30.1625 19.1309C30.6472 19.1309 31.0414 19.5251 31.0414 20.0098V38.8507H29.2836V20.0098ZM31.0414 53.4082C31.0414 53.8929 30.6472 54.2871 30.1625 54.2871C29.6778 54.2871 29.2836 53.8929 29.2836 53.4082V45.296H31.0414V53.4082ZM32.7993 43.4796C32.7993 43.512 32.7729 43.5382 32.7407 43.5382C30.5096 43.5382 29.9354 43.5382 27.5844 43.5382C27.5522 43.5382 27.5258 43.512 27.5258 43.4796V40.6671C27.5258 40.6348 27.5522 40.6085 27.5844 40.6085H32.7407C32.7729 40.6085 32.7993 40.6348 32.7993 40.6671V43.4796Z" fill="#ffb515"/>
<path d="M41.2141 17.373C39.7602 17.373 38.5773 18.5558 38.5773 20.0098V22.2444C37.603 22.2757 36.8195 23.0761 36.8195 24.0579V26.8704C36.8195 27.8522 37.603 28.6526 38.5773 28.6839V53.4082C38.5773 54.8621 39.7602 56.0449 41.2141 56.0449C42.6679 56.0449 43.8508 54.8621 43.8508 53.4082V28.6839C44.8251 28.6526 45.6086 27.8522 45.6086 26.8704V24.0579C45.6086 23.0761 44.8251 22.2757 43.8508 22.2444V20.0098C43.8508 18.5558 42.668 17.373 41.2141 17.373ZM40.3351 20.0098C40.3351 19.5251 40.7294 19.1309 41.2141 19.1309C41.6987 19.1309 42.093 19.5251 42.093 20.0098V22.2415H40.3351V20.0098ZM42.093 53.4082C42.093 53.8929 41.6987 54.2871 41.2141 54.2871C40.7294 54.2871 40.3351 53.8929 40.3351 53.4082V28.6868H42.093V53.4082ZM43.8508 26.8704C43.8508 26.9027 43.8244 26.929 43.7922 26.929C41.5612 26.929 40.9869 26.929 38.6359 26.929C38.6037 26.929 38.5773 26.9027 38.5773 26.8704V24.0579C38.5773 24.0255 38.6037 23.9993 38.6359 23.9993H43.7922C43.8244 23.9993 43.8508 24.0255 43.8508 24.0579V26.8704Z" fill="#ffb515"/>
<path d="M52.2656 17.373C50.8118 17.373 49.6289 18.5558 49.6289 20.0098V28.8881C48.6546 28.9194 47.8711 29.7198 47.8711 30.7016V33.5141C47.8711 34.4959 48.6546 35.2963 49.6289 35.3276V53.4082C49.6289 54.8621 50.8118 56.0449 52.2656 56.0449C53.7195 56.0449 54.9023 54.8621 54.9023 53.4082V35.3275C55.8766 35.2962 56.6602 34.4958 56.6602 33.514V30.7015C56.6602 29.7197 55.8766 28.9193 54.9023 28.888V20.0098C54.9023 18.5558 53.7195 17.373 52.2656 17.373ZM51.3867 20.0098C51.3867 19.5251 51.7809 19.1309 52.2656 19.1309C52.7503 19.1309 53.1445 19.5251 53.1445 20.0098V28.8852H51.3867V20.0098ZM53.1445 53.4082C53.1445 53.8928 52.7503 54.2871 52.2656 54.2871C51.7809 54.2871 51.3867 53.8928 51.3867 53.4082V35.3305H53.1445V53.4082ZM54.9023 33.5141C54.9023 33.5464 54.876 33.5727 54.8438 33.5727C52.6127 33.5727 52.0385 33.5727 49.6875 33.5727C49.6553 33.5727 49.6289 33.5464 49.6289 33.5141V30.7016C49.6289 30.6693 49.6553 30.643 49.6875 30.643H54.8438C54.876 30.643 54.9023 30.6693 54.9023 30.7016V33.5141Z" fill="#ffb515"/>
<path d="M34.0234 5.12695V10.2832C34.0234 11.1555 34.7331 11.8652 35.6054 11.8652H53.8676C54.7399 11.8652 55.4496 11.1555 55.4496 10.2832V5.12695C55.4496 4.25461 54.7399 3.54492 53.8676 3.54492H35.6054C34.7331 3.54492 34.0234 4.25461 34.0234 5.12695ZM35.7812 5.30273H53.6918V10.1074H35.7812V5.30273Z" fill="#ffb515"/>
<path d="M4.55042 7.70508C4.55042 9.99902 6.41663 11.8652 8.71057 11.8652C11.0045 11.8652 12.8707 9.99902 12.8707 7.70508C12.8707 5.41113 11.0045 3.54492 8.71057 3.54492C6.41663 3.54492 4.55042 5.41113 4.55042 7.70508ZM11.1129 7.70508C11.1129 9.02977 10.0353 10.1074 8.71057 10.1074C7.38588 10.1074 6.30823 9.02977 6.30823 7.70508C6.30823 6.38039 7.38588 5.30273 8.71057 5.30273C10.0353 5.30273 11.1129 6.38039 11.1129 7.70508Z" fill="#ffb515"/>
<path d="M15.0764 7.70508C15.0764 9.99902 16.9426 11.8652 19.2366 11.8652C21.5305 11.8652 23.3967 9.99902 23.3967 7.70508C23.3967 5.41113 21.5305 3.54492 19.2366 3.54492C16.9426 3.54492 15.0764 5.41113 15.0764 7.70508ZM21.6389 7.70508C21.6389 9.02977 20.5613 10.1074 19.2366 10.1074C17.9119 10.1074 16.8342 9.02977 16.8342 7.70508C16.8342 6.38039 17.9119 5.30273 19.2366 5.30273C20.5613 5.30273 21.6389 6.38039 21.6389 7.70508Z" fill="#ffb515"/>
<path d="M27.1697 3.54492C26.2973 3.54492 25.5876 4.25461 25.5876 5.12695V10.2832C25.5876 11.1555 26.2973 11.8652 27.1697 11.8652H30.2357C31.108 11.8652 31.8177 11.1555 31.8177 10.2832V5.12695C31.8177 4.25461 31.108 3.54492 30.2357 3.54492H27.1697ZM30.0599 10.1074H27.3455V5.30273H30.0599V10.1074Z" fill="#ffb515"/>
</svg>
