<svg width="60" height="60" viewBox="0 0 60 60" fill="none" xmlns="http://www.w3.org/2000/svg">
<path d="M55.3125 48.0937C55.0639 48.0937 54.8254 48.1925 54.6496 48.3683C54.4738 48.5442 54.375 48.7826 54.375 49.0312V56.25H3.75V46.875C3.75 46.6264 3.65123 46.3879 3.47541 46.2121C3.2996 46.0363 3.06114 45.9375 2.8125 45.9375C2.56386 45.9375 2.3254 46.0363 2.14959 46.2121C1.97377 46.3879 1.875 46.6264 1.875 46.875V57.1875C1.875 57.4361 1.97377 57.6746 2.14959 57.8504C2.3254 58.0262 2.56386 58.125 2.8125 58.125H55.3125C55.5611 58.125 55.7996 58.0262 55.9754 57.8504C56.1512 57.6746 56.25 57.4361 56.25 57.1875V49.0312C56.25 48.7826 56.1512 48.5442 55.9754 48.3683C55.7996 48.1925 55.5611 48.0937 55.3125 48.0937Z" fill="#ffb515"/>
<path d="M2.8125 44.0625C3.06114 44.0625 3.2996 43.9637 3.47541 43.7879C3.65123 43.6121 3.75 43.3736 3.75 43.125V7.5H7.5V8.4375C6.71294 9.02779 6.13156 9.85077 5.83822 10.7898C5.54487 11.7289 5.55443 12.7365 5.86555 13.6698C6.17666 14.6032 6.77355 15.4149 7.57167 15.9902C8.36979 16.5655 9.32868 16.875 10.3125 16.875C11.2963 16.875 12.2552 16.5655 13.0533 15.9902C13.8514 15.4149 14.4483 14.6032 14.7595 13.6698C15.0706 12.7365 15.0801 11.7289 14.7868 10.7898C14.4934 9.85077 13.9121 9.02779 13.125 8.4375V7.5H19.6875V8.4375C18.9004 9.02779 18.3191 9.85077 18.0257 10.7898C17.7324 11.7289 17.7419 12.7365 18.053 13.6698C18.3642 14.6032 18.9611 15.4149 19.7592 15.9902C20.5573 16.5655 21.5162 16.875 22.5 16.875C23.4838 16.875 24.4427 16.5655 25.2408 15.9902C26.0389 15.4149 26.6358 14.6032 26.947 13.6698C27.2581 12.7365 27.2676 11.7289 26.9743 10.7898C26.6809 9.85077 26.0996 9.02779 25.3125 8.4375V7.5H30C30.2486 7.5 30.4871 7.40123 30.6629 7.22541C30.8387 7.0496 30.9375 6.81114 30.9375 6.5625C30.9375 6.31386 30.8387 6.0754 30.6629 5.89959C30.4871 5.72377 30.2486 5.625 30 5.625H25.3125V4.6875C25.3125 3.94158 25.0162 3.22621 24.4887 2.69876C23.9613 2.17132 23.2459 1.875 22.5 1.875C21.7541 1.875 21.0387 2.17132 20.5113 2.69876C19.9838 3.22621 19.6875 3.94158 19.6875 4.6875V5.625H13.125V4.6875C13.125 3.94158 12.8287 3.22621 12.3012 2.69876C11.7738 2.17132 11.0584 1.875 10.3125 1.875C9.56658 1.875 8.85121 2.17132 8.32376 2.69876C7.79632 3.22621 7.5 3.94158 7.5 4.6875V5.625H2.8125C2.56386 5.625 2.3254 5.72377 2.14959 5.89959C1.97377 6.0754 1.875 6.31386 1.875 6.5625V43.125C1.875 43.3736 1.97377 43.6121 2.14959 43.7879C2.3254 43.9637 2.56386 44.0625 2.8125 44.0625ZM22.5 15C21.7541 15 21.0387 14.7037 20.5113 14.1762C19.9838 13.6488 19.6875 12.9334 19.6875 12.1875C19.6935 11.8718 19.7534 11.5595 19.8647 11.2641C20.058 11.8084 20.4151 12.2795 20.887 12.6127C21.3589 12.9459 21.9224 13.1247 22.5 13.1247C23.0776 13.1247 23.6411 12.9459 24.113 12.6127C24.5849 12.2795 24.942 11.8084 25.1353 11.2641C25.2466 11.5595 25.3065 11.8718 25.3125 12.1875C25.3125 12.9334 25.0162 13.6488 24.4887 14.1762C23.9613 14.7037 23.2459 15 22.5 15ZM21.5625 4.6875C21.5625 4.43886 21.6613 4.2004 21.8371 4.02459C22.0129 3.84877 22.2514 3.75 22.5 3.75C22.7486 3.75 22.9871 3.84877 23.1629 4.02459C23.3387 4.2004 23.4375 4.43886 23.4375 4.6875V10.3125C23.4375 10.5611 23.3387 10.7996 23.1629 10.9754C22.9871 11.1512 22.7486 11.25 22.5 11.25C22.2514 11.25 22.0129 11.1512 21.8371 10.9754C21.6613 10.7996 21.5625 10.5611 21.5625 10.3125V4.6875ZM10.3125 15C9.56658 15 8.85121 14.7037 8.32376 14.1762C7.79632 13.6488 7.5 12.9334 7.5 12.1875C7.50601 11.8718 7.56594 11.5595 7.67719 11.2641C7.8705 11.8084 8.22763 12.2795 8.69951 12.6127C9.17139 12.9459 9.73486 13.1247 10.3125 13.1247C10.8901 13.1247 11.4536 12.9459 11.9255 12.6127C12.3974 12.2795 12.7545 11.8084 12.9478 11.2641C13.0591 11.5595 13.119 11.8718 13.125 12.1875C13.125 12.9334 12.8287 13.6488 12.3012 14.1762C11.7738 14.7037 11.0584 15 10.3125 15ZM9.375 4.6875C9.375 4.43886 9.47377 4.2004 9.64959 4.02459C9.8254 3.84877 10.0639 3.75 10.3125 3.75C10.5611 3.75 10.7996 3.84877 10.9754 4.02459C11.1512 4.2004 11.25 4.43886 11.25 4.6875V10.3125C11.25 10.5611 11.1512 10.7996 10.9754 10.9754C10.7996 11.1512 10.5611 11.25 10.3125 11.25C10.0639 11.25 9.8254 11.1512 9.64959 10.9754C9.47377 10.7996 9.375 10.5611 9.375 10.3125V4.6875Z" fill="#ffb515"/>
<path d="M30.9375 12.1875C30.9375 12.9865 31.1417 13.7723 31.5308 14.4701C31.9199 15.168 32.481 15.7549 33.1606 16.1749C33.8403 16.595 34.6161 16.8343 35.4143 16.8703C36.2125 16.9062 37.0067 16.7375 37.7213 16.3801C38.436 16.0228 39.0474 15.4887 39.4976 14.8286C39.9478 14.1685 40.2218 13.4043 40.2936 12.6085C40.3653 11.8127 40.2325 11.0118 39.9076 10.2818C39.5828 9.55176 39.0767 8.91691 38.4375 8.4375V7.5H45V10.3125C44.9985 10.974 45.2309 11.6148 45.6559 12.1217C46.081 12.6285 46.6715 12.9689 47.3231 13.0828C47.9748 13.1966 48.6457 13.0765 49.2174 12.7437C49.7892 12.411 50.2249 11.8869 50.4478 11.2641C50.5591 11.5595 50.619 11.8718 50.625 12.1875C50.6251 12.7588 50.4513 13.3167 50.1265 13.7867C49.8018 14.2568 49.3416 14.6168 48.8072 14.8189C48.2728 15.0209 47.6895 15.0554 47.135 14.9178C46.5805 14.7802 46.081 14.4769 45.7031 14.0484C45.5387 13.862 45.3068 13.7485 45.0587 13.7329C44.8105 13.7173 44.5663 13.801 44.3798 13.9655C44.1934 14.1299 44.0799 14.3618 44.0643 14.6099C44.0487 14.8581 44.1324 15.1023 44.2969 15.2888C44.7309 15.7803 45.2632 16.1752 45.8594 16.4482C46.4556 16.7211 47.1025 16.8659 47.7581 16.8732C48.4138 16.8805 49.0637 16.7502 49.6659 16.4907C50.268 16.2312 50.809 15.8482 51.2539 15.3665C51.6988 14.8848 52.0377 14.3152 52.2487 13.6943C52.4597 13.0735 52.5381 12.4153 52.4788 11.7623C52.4195 11.1093 52.2239 10.4759 51.9046 9.90323C51.5853 9.33054 51.1494 8.8312 50.625 8.4375V7.5H54.375V18.75H6.5625C6.31386 18.75 6.0754 18.8488 5.89959 19.0246C5.72377 19.2004 5.625 19.4389 5.625 19.6875C5.625 19.9361 5.72377 20.1746 5.89959 20.3504C6.0754 20.5262 6.31386 20.625 6.5625 20.625H35.6409C33.3855 21.8318 31.4514 23.5605 30 25.6669V24.375C30 24.1264 29.9012 23.8879 29.7254 23.7121C29.5496 23.5363 29.3111 23.4375 29.0625 23.4375C28.8139 23.4375 28.5754 23.5363 28.3996 23.7121C28.2238 23.8879 28.125 24.1264 28.125 24.375V29.3541C27.5083 31.0648 27.1912 32.869 27.1875 34.6875C27.1904 35.6311 27.2792 36.5725 27.4528 37.5H20.625V30H25.3125C25.5611 30 25.7996 29.9012 25.9754 29.7254C26.1512 29.5496 26.25 29.3111 26.25 29.0625C26.25 28.8139 26.1512 28.5754 25.9754 28.3996C25.7996 28.2238 25.5611 28.125 25.3125 28.125H20.625V24.375C20.625 24.1264 20.5262 23.8879 20.3504 23.7121C20.1746 23.5363 19.9361 23.4375 19.6875 23.4375C19.4389 23.4375 19.2004 23.5363 19.0246 23.7121C18.8488 23.8879 18.75 24.1264 18.75 24.375V28.125H11.25V24.375C11.25 24.1264 11.1512 23.8879 10.9754 23.7121C10.7996 23.5363 10.5611 23.4375 10.3125 23.4375C10.0639 23.4375 9.8254 23.5363 9.64959 23.7121C9.47377 23.8879 9.375 24.1264 9.375 24.375V28.125H6.5625C6.31386 28.125 6.0754 28.2238 5.89959 28.3996C5.72377 28.5754 5.625 28.8139 5.625 29.0625C5.625 29.3111 5.72377 29.5496 5.89959 29.7254C6.0754 29.9012 6.31386 30 6.5625 30H9.375V37.5H6.5625C6.31386 37.5 6.0754 37.5988 5.89959 37.7746C5.72377 37.9504 5.625 38.1889 5.625 38.4375C5.625 38.6861 5.72377 38.9246 5.89959 39.1004C6.0754 39.2762 6.31386 39.375 6.5625 39.375H9.375V46.875H6.5625C6.31386 46.875 6.0754 46.9738 5.89959 47.1496C5.72377 47.3254 5.625 47.5639 5.625 47.8125C5.625 48.0611 5.72377 48.2996 5.89959 48.4754C6.0754 48.6512 6.31386 48.75 6.5625 48.75H9.375V52.5C9.375 52.7486 9.47377 52.9871 9.64959 53.1629C9.8254 53.3387 10.0639 53.4375 10.3125 53.4375C10.5611 53.4375 10.7996 53.3387 10.9754 53.1629C11.1512 52.9871 11.25 52.7486 11.25 52.5V48.75H15.9375C16.1861 48.75 16.4246 48.6512 16.6004 48.4754C16.7762 48.2996 16.875 48.0611 16.875 47.8125C16.875 47.5639 16.7762 47.3254 16.6004 47.1496C16.4246 46.9738 16.1861 46.875 15.9375 46.875H11.25V39.375H18.75V52.5C18.75 52.7486 18.8488 52.9871 19.0246 53.1629C19.2004 53.3387 19.4389 53.4375 19.6875 53.4375C19.9361 53.4375 20.1746 53.3387 20.3504 53.1629C20.5262 52.9871 20.625 52.7486 20.625 52.5V48.75H28.125V52.5C28.125 52.7486 28.2238 52.9871 28.3996 53.1629C28.5754 53.3387 28.8139 53.4375 29.0625 53.4375C29.3111 53.4375 29.5496 53.3387 29.7254 53.1629C29.9012 52.9871 30 52.7486 30 52.5V48.75H35.6662C36.2589 49.0681 36.8714 49.3477 37.5 49.5872V52.5C37.5 52.7486 37.5988 52.9871 37.7746 53.1629C37.9504 53.3387 38.1889 53.4375 38.4375 53.4375C38.6861 53.4375 38.9246 53.3387 39.1004 53.1629C39.2762 52.9871 39.375 52.7486 39.375 52.5V50.1722C40.6028 50.4705 41.8615 50.6225 43.125 50.625C44.389 50.6203 45.648 50.4646 46.875 50.1609V52.5C46.875 52.7486 46.9738 52.9871 47.1496 53.1629C47.3254 53.3387 47.5639 53.4375 47.8125 53.4375C48.0611 53.4375 48.2996 53.3387 48.4754 53.1629C48.6512 52.9871 48.75 52.7486 48.75 52.5V49.5806C52.3556 48.234 55.3486 45.6223 57.1712 42.2324C58.9938 38.8424 59.5218 34.9054 58.6566 31.155C58.6016 30.9124 58.4526 30.7017 58.2422 30.569C58.0318 30.4364 57.7774 30.3927 57.5348 30.4477C57.2923 30.5026 57.0815 30.6517 56.9489 30.862C56.8162 31.0724 56.7726 31.3268 56.8275 31.5694C57.3033 33.6284 57.3077 35.7683 56.8402 37.8291C56.3727 39.89 55.4454 41.8186 54.1278 43.4708C52.8101 45.1229 51.1361 46.4559 49.2308 47.37C47.3255 48.2842 45.2382 48.756 43.125 48.75C40.9605 48.755 38.8246 48.2564 36.8859 47.2939C34.9473 46.3313 33.2591 44.931 31.9547 43.2038C31.8624 43.0847 31.7431 42.9893 31.6067 42.9254C31.4702 42.8615 31.3206 42.8309 31.17 42.8363L26.3438 43.0406L29.3822 39.0759C29.4692 38.9626 29.5291 38.8308 29.5573 38.6908C29.5856 38.5507 29.5815 38.406 29.5453 38.2678C28.6651 34.9202 29.0517 31.3655 30.631 28.2853C32.2102 25.2052 34.8709 22.8165 38.1028 21.5772C41.3348 20.3379 44.9105 20.3354 48.1442 21.57C51.3779 22.8047 54.042 25.1896 55.6256 28.2675C55.7394 28.4887 55.9363 28.6556 56.1732 28.7315C56.41 28.8075 56.6673 28.7863 56.8884 28.6725C57.1096 28.5587 57.2765 28.3618 57.3525 28.125C57.4284 27.8881 57.4072 27.6309 57.2934 27.4097C56.9822 26.8088 56.6337 26.228 56.25 25.6706V6.5625C56.25 6.31386 56.1512 6.0754 55.9754 5.89959C55.7996 5.72377 55.5611 5.625 55.3125 5.625H50.625V4.6875C50.625 3.94158 50.3287 3.22621 49.8012 2.69876C49.2738 2.17132 48.5584 1.875 47.8125 1.875C47.0666 1.875 46.3512 2.17132 45.8238 2.69876C45.2963 3.22621 45 3.94158 45 4.6875V5.625H38.4375V4.6875C38.4375 3.94158 38.1412 3.22621 37.6137 2.69876C37.0863 2.17132 36.3709 1.875 35.625 1.875C34.8791 1.875 34.1637 2.17132 33.6363 2.69876C33.1088 3.22621 32.8125 3.94158 32.8125 4.6875V8.445C32.2313 8.88087 31.7594 9.44584 31.434 10.0953C31.1087 10.7448 30.9387 11.4611 30.9375 12.1875ZM11.25 37.5V30H18.75V37.5H11.25ZM32.8997 46.875H30V44.7628L30.7697 44.73C31.4109 45.5102 32.124 46.2283 32.8997 46.875ZM23.5434 44.4947C23.6263 44.6523 23.7521 44.7832 23.9062 44.8725C24.0603 44.9617 24.2364 45.0056 24.4144 44.9991L28.125 44.8416V46.875H20.625V39.375H26.7872L23.6316 43.4925C23.5232 43.6339 23.4573 43.8033 23.4417 43.9808C23.4261 44.1583 23.4614 44.3365 23.5434 44.4947ZM50.625 20.625H54.375V23.415C53.2697 22.3048 52.006 21.3646 50.625 20.625ZM46.875 4.6875C46.875 4.43886 46.9738 4.2004 47.1496 4.02459C47.3254 3.84877 47.5639 3.75 47.8125 3.75C48.0611 3.75 48.2996 3.84877 48.4754 4.02459C48.6512 4.2004 48.75 4.43886 48.75 4.6875V10.3125C48.75 10.5611 48.6512 10.7996 48.4754 10.9754C48.2996 11.1512 48.0611 11.25 47.8125 11.25C47.5639 11.25 47.3254 11.1512 47.1496 10.9754C46.9738 10.7996 46.875 10.5611 46.875 10.3125V4.6875ZM34.6875 4.6875C34.6875 4.43886 34.7863 4.2004 34.9621 4.02459C35.1379 3.84877 35.3764 3.75 35.625 3.75C35.8736 3.75 36.1121 3.84877 36.2879 4.02459C36.4637 4.2004 36.5625 4.43886 36.5625 4.6875V10.3125C36.5625 10.5611 36.4637 10.7996 36.2879 10.9754C36.1121 11.1512 35.8736 11.25 35.625 11.25C35.3764 11.25 35.1379 11.1512 34.9621 10.9754C34.7863 10.7996 34.6875 10.5611 34.6875 10.3125V4.6875ZM32.9897 11.2641C33.183 11.8084 33.5401 12.2795 34.012 12.6127C34.4839 12.9459 35.0474 13.1247 35.625 13.1247C36.2026 13.1247 36.7661 12.9459 37.238 12.6127C37.7099 12.2795 38.067 11.8084 38.2603 11.2641C38.3716 11.5595 38.4315 11.8718 38.4375 12.1875C38.4375 12.9334 38.1412 13.6488 37.6137 14.1762C37.0863 14.7037 36.3709 15 35.625 15C34.8791 15 34.1637 14.7037 33.6363 14.1762C33.1088 13.6488 32.8125 12.9334 32.8125 12.1875C32.8185 11.8718 32.8784 11.5595 32.9897 11.2641Z" fill="#ffb515"/>
<path d="M54.3291 31.4559C54.2749 31.2897 54.1754 31.1419 54.0417 31.0293C53.908 30.9166 53.7455 30.8436 53.5725 30.8184L46.9341 29.8537L43.9688 23.8387C43.8826 23.6926 43.7598 23.5714 43.6125 23.4872C43.4652 23.403 43.2984 23.3587 43.1288 23.3587C42.9591 23.3587 42.7923 23.403 42.645 23.4872C42.4977 23.5714 42.3749 23.6926 42.2888 23.8387L39.3197 29.8537L32.6813 30.8184C32.5081 30.8436 32.3454 30.9167 32.2117 31.0295C32.0779 31.1423 31.9784 31.2902 31.9243 31.4566C31.8703 31.6231 31.8639 31.8013 31.9059 31.9711C31.9478 32.141 32.0365 32.2957 32.1619 32.4178L36.9656 37.0987L35.8313 43.7109C35.8018 43.8832 35.8212 44.0603 35.8871 44.2222C35.9529 44.384 36.0628 44.5243 36.2042 44.627C36.3455 44.7298 36.5128 44.791 36.6871 44.8037C36.8614 44.8165 37.0358 44.7802 37.1906 44.6991L43.125 41.5772L49.0631 44.6991C49.2179 44.7802 49.3923 44.8165 49.5666 44.8037C49.7409 44.791 49.9082 44.7298 50.0496 44.627C50.191 44.5243 50.3008 44.384 50.3667 44.2222C50.4326 44.0603 50.4519 43.8832 50.4225 43.7109L49.2881 37.0987L54.0938 32.4178C54.2188 32.2954 54.3072 32.1405 54.3488 31.9705C54.3904 31.8005 54.3835 31.6223 54.3291 31.4559ZM47.625 36.1003C47.5163 36.2064 47.435 36.3374 47.3881 36.482C47.3412 36.6265 47.3302 36.7802 47.3559 36.93L48.2522 42.1547L43.5591 39.6881C43.4246 39.6175 43.275 39.5806 43.1231 39.5806C42.9713 39.5806 42.8216 39.6175 42.6872 39.6881L37.9941 42.1547L38.8903 36.93C38.9161 36.7802 38.905 36.6265 38.8581 36.482C38.8113 36.3374 38.73 36.2064 38.6213 36.1003L34.8253 32.4009L40.0706 31.6387C40.222 31.6175 40.3658 31.5596 40.4897 31.4701C40.6136 31.3805 40.7137 31.2621 40.7813 31.125L43.125 26.3709L45.4688 31.125C45.5359 31.2615 45.6353 31.3796 45.7583 31.4691C45.8813 31.5586 46.0242 31.6168 46.1747 31.6387L51.42 32.4009L47.625 36.1003Z" fill="#ffb515"/>
</svg>
