<svg width="60" height="60" viewBox="0 0 60 60" fill="none" xmlns="http://www.w3.org/2000/svg">
<g clip-path="url(#clip0)">
<path d="M7.63318 3.66852C6.09967 3.66852 4.85181 4.91638 4.85181 6.44989C4.85181 7.9834 6.09967 9.2308 7.63318 9.2308C9.16669 9.2308 10.4141 7.98294 10.4141 6.44943C10.4141 4.91592 9.16669 3.66852 7.63318 3.66852ZM7.63318 7.4556C7.07837 7.4556 6.62701 7.00424 6.62701 6.44943C6.62701 5.89508 7.07837 5.44373 7.63318 5.44373C8.18753 5.44373 8.63889 5.89508 8.63889 6.44943C8.63889 7.00424 8.18753 7.4556 7.63318 7.4556Z" fill="#ffb515"/>
<path d="M15.0888 3.66852C13.5553 3.66852 12.3074 4.91638 12.3074 6.44989C12.3074 7.9834 13.5553 9.2308 15.0888 9.2308C16.6223 9.2308 17.8697 7.9834 17.8697 6.44989C17.8697 4.91638 16.6223 3.66852 15.0888 3.66852ZM15.0888 7.4556C14.534 7.4556 14.0826 7.00424 14.0826 6.44943C14.0826 5.89508 14.534 5.44373 15.0888 5.44373C15.6432 5.44373 16.0945 5.89508 16.0945 6.44943C16.0945 7.00424 15.6432 7.4556 15.0888 7.4556Z" fill="#ffb515"/>
<path d="M22.5444 3.66852C21.0109 3.66852 19.7635 4.91638 19.7635 6.44989C19.7635 7.9834 21.0109 9.2308 22.5444 9.2308C24.0779 9.2308 25.3253 7.9834 25.3253 6.44989C25.3253 4.91638 24.0779 3.66852 22.5444 3.66852ZM22.5444 7.4556C21.9896 7.4556 21.5387 7.00424 21.5387 6.44943C21.5387 5.89508 21.9896 5.44373 22.5444 5.44373C23.0992 5.44373 23.5506 5.89508 23.5506 6.44943C23.5506 7.00424 23.0988 7.4556 22.5444 7.4556Z" fill="#ffb515"/>
<path d="M56.7458 0H3.25424C1.45981 0 0 1.45981 0 3.25424V42.426C0 44.2204 1.45981 45.6802 3.25424 45.6802H8.97995C8.70804 46.0286 8.73184 46.5326 9.05228 46.853L13.3168 51.1176C12.9973 51.7731 12.7176 52.4483 12.4796 53.1358H6.44943C5.95963 53.1358 5.56229 53.5332 5.56229 54.0234V59.1124C5.56229 59.6027 5.95963 60 6.44943 60H23.9644C24.4547 60 24.852 59.6027 24.852 59.1124C24.852 56.4043 27.0552 54.201 29.7633 54.201C32.471 54.201 34.6742 56.4043 34.6742 59.1124C34.6742 59.6027 35.0716 60 35.5618 60H53.0768C53.567 60 53.9644 59.6027 53.9644 59.1124V54.0234C53.9644 53.5332 53.567 53.1358 53.0768 53.1358H47.0467C46.8086 52.4483 46.5289 51.7731 46.2094 51.1176L50.4744 46.853C50.7944 46.5326 50.8182 46.0286 50.5463 45.6802H56.7453C58.5397 45.6802 59.9995 44.2204 59.9995 42.426V20.4684C59.9995 19.9782 59.6022 19.5808 59.1124 19.5808C58.6221 19.5808 58.2248 19.9782 58.2248 20.4684V42.426C58.2248 43.2417 57.561 43.905 56.7453 43.905H48.7816L43.5503 38.6737V32.6033C43.5503 32.113 43.1525 31.7157 42.6627 31.7157H41.0651V26.2463L42.3175 25.09C42.5693 24.8575 42.6649 24.5013 42.5633 24.1745L40.4333 17.3108C40.318 16.9395 39.9742 16.6864 39.5856 16.6864H37.2185C36.8298 16.6864 36.4861 16.9395 36.3707 17.3108L34.2407 24.1745C34.1391 24.5013 34.2348 24.8575 34.4865 25.09L35.7394 26.2463V31.7157H34.1418C33.6516 31.7157 33.2542 32.113 33.2542 32.6033V34.9109H26.272V33.5628L29.6805 30.1543C29.8471 29.9876 29.9405 29.762 29.9405 29.5267V22.2482C29.9405 22.0111 29.8453 21.7836 29.6764 21.617L24.9431 16.9423C24.6881 16.6905 24.3073 16.6168 23.9772 16.7546C23.6467 16.8929 23.4315 17.2156 23.4315 17.5735V25.486L21.124 26.9389L18.8164 25.486V24.9802C18.8164 24.4899 18.419 24.0926 17.9288 24.0926C17.4385 24.0926 17.0412 24.4899 17.0412 24.9802V25.9758C17.0412 26.2811 17.1977 26.5645 17.4559 26.727L20.6511 28.7389C20.9399 28.9211 21.308 28.9211 21.5968 28.7389L24.792 26.727C25.0502 26.5645 25.2068 26.2811 25.2068 25.9758V19.6976L28.1653 22.619V29.1586L24.7568 32.5671C24.5901 32.7338 24.4968 32.9594 24.4968 33.1952V34.9287C24.0916 35.0111 23.7868 35.3691 23.7868 35.7985V41.8286C23.0988 42.0662 22.424 42.3463 21.768 42.6654L17.7512 38.6485V33.1952C17.7512 32.9594 17.6578 32.7338 17.4911 32.5671L14.0826 29.1586V22.619L17.0412 19.6976V20.8232C17.0412 21.3135 17.4385 21.7108 17.9288 21.7108C18.419 21.7108 18.8164 21.3135 18.8164 20.8232V17.574C18.8164 17.2156 18.6012 16.8929 18.2707 16.7551C17.9407 16.6168 17.5598 16.691 17.3048 16.9423L12.5711 21.617C12.4022 21.7836 12.3074 22.0111 12.3074 22.2482V29.5267C12.3074 29.762 12.4008 29.9876 12.5674 30.1543L15.976 33.5628V38.6737L10.7446 43.905H3.25424C2.43851 43.905 1.77521 43.2417 1.77521 42.426V12.8993H58.2248V16.3335C58.2248 16.8233 58.6221 17.2206 59.1124 17.2206C59.6027 17.2206 60 16.8233 60 16.3335V3.25424C60 1.45981 58.5402 0 56.7458 0V0ZM37.229 25.2058L36.1024 24.1658L37.8731 18.4616H38.9319L40.7021 24.1658L39.5755 25.2058C39.3938 25.3738 39.2899 25.61 39.2899 25.8582V31.7162H37.5151V25.8582C37.5146 25.61 37.4112 25.3738 37.229 25.2058ZM41.7751 33.4909V38.649L37.7582 42.6659C37.1022 42.3468 36.4275 42.0667 35.7394 41.8286V35.799C35.7394 35.3696 35.4346 35.0116 35.0294 34.9292V33.4914H41.7751V33.4909ZM22.0143 44.5326C22.9459 44.0364 23.9282 43.629 24.9339 43.3218C25.307 43.2079 25.562 42.8632 25.562 42.4727V36.6861H33.9642V42.4727C33.9642 42.8632 34.2197 43.2079 34.5927 43.3218C35.5984 43.629 36.5808 44.0364 37.5124 44.5326C37.8571 44.7162 38.2809 44.653 38.5574 44.377L42.6503 40.2841L47.7859 45.4202C47.7864 45.4202 47.7864 45.4207 47.7869 45.4211L48.5916 46.2254L44.4987 50.3183C44.2227 50.5943 44.1595 51.0187 44.3431 51.3634C44.8393 52.2945 45.2467 53.2768 45.5539 54.283C45.6679 54.6561 46.0126 54.911 46.4026 54.911H52.1892V58.2248H43.1653C42.7066 51.2306 36.8715 45.6807 29.7633 45.6807C27.8627 45.6807 26.0257 46.0698 24.3027 46.837C23.855 47.0366 23.6536 47.5612 23.8531 48.0093C24.0523 48.457 24.5778 48.658 25.025 48.4589C26.5192 47.7933 28.1131 47.4559 29.7633 47.4559C35.8923 47.4559 40.9319 52.2102 41.3864 58.2248H36.3908C35.9555 54.9564 33.1494 52.4263 29.7633 52.4263C26.3773 52.4263 23.5712 54.9564 23.1358 58.2248H18.1393C18.3549 55.3102 19.6326 52.6323 21.7914 50.6076C22.1489 50.2725 22.1672 49.7108 21.8317 49.3529C21.4966 48.9958 20.9349 48.9775 20.5774 49.3126C18.0954 51.6399 16.5884 54.8483 16.3623 58.2248H7.33704V54.911H13.1236C13.5141 54.911 13.8588 54.6561 13.9728 54.283C14.2799 53.2768 14.6873 52.2945 15.1836 51.3634C15.3671 51.0187 15.304 50.5943 15.0279 50.3183L10.9351 46.2254L11.7398 45.4211C11.7398 45.4207 11.7403 45.4202 11.7407 45.4202L16.8764 40.2841L20.9692 44.377C21.2453 44.653 21.6696 44.7162 22.0143 44.5326ZM1.77521 11.1241V3.25424C1.77521 2.43851 2.43896 1.77521 3.25424 1.77521H56.7458C57.5615 1.77521 58.2248 2.43896 58.2248 3.25424V11.1241H1.77521Z" fill="#ffb515"/>
</g>
<defs>
<clipPath id="clip0">
<rect width="60" height="60" fill="white"/>
</clipPath>
</defs>
</svg>
